<?xml version="1.0" encoding="UTF-8"?>
<svg version="1.1" xmlns="http://www.w3.org/2000/svg" width="429" height="446">
<path d="M0 0 C1.71075462 0.00068733 1.71075462 0.00068733 3.45606995 0.00138855 C5.852153 0.0043964 8.24823436 0.01223841 10.64428711 0.0246582 C14.32868285 0.04302997 18.01282864 0.0451669 21.69726562 0.04492188 C24.02734594 0.0498332 26.35742455 0.05565983 28.6875 0.0625 C29.7946788 0.06361282 30.9018576 0.06472565 32.04258728 0.06587219 C33.56536034 0.07544197 33.56536034 0.07544197 35.11889648 0.08520508 C36.01632065 0.08901688 36.91374481 0.09282867 37.83836365 0.09675598 C39.87890625 0.23046875 39.87890625 0.23046875 40.87890625 1.23046875 C40.97308398 3.31665897 40.99633503 5.40607352 40.99243164 7.49438477 C40.99257767 8.14802002 40.99272369 8.80165527 40.99287415 9.47509766 C40.99217508 11.64489003 40.98438303 13.81459754 40.9765625 15.984375 C40.9746983 17.48510186 40.97327441 18.98582932 40.97227478 20.48655701 C40.96844977 24.44365101 40.95861965 28.40070853 40.9475708 32.35778809 C40.93735631 36.39281724 40.93277708 40.42785228 40.92773438 44.46289062 C40.91699736 52.38543344 40.89992115 60.30794656 40.87890625 68.23046875 C42.49050377 68.21714508 42.49050377 68.21714508 44.13465881 68.20355225 C54.27184251 68.12238011 64.40896005 68.06246188 74.5463953 68.02322006 C79.75787489 68.002367 84.96909161 67.97409083 90.18041992 67.92871094 C95.2119498 67.88517212 100.2432272 67.86131449 105.27493095 67.85095978 C107.19224457 67.84358285 109.10954475 67.82917735 111.02675056 67.80754852 C113.71743492 67.77840765 116.407083 67.77451719 119.09790039 67.77636719 C119.88624771 67.76198608 120.67459503 67.74760498 121.48683167 67.73278809 C127.84912381 67.77995841 131.96209015 69.650237 136.79150391 73.92236328 C138.51662556 77.58408312 138.30639958 81.16264232 138.27734375 85.16015625 C138.28164902 86.4620842 138.28164902 86.4620842 138.28604126 87.79031372 C138.28808032 89.62437595 138.28256149 91.45845999 138.27001953 93.29248047 C138.25400221 96.088716 138.26985316 98.88349762 138.2890625 101.6796875 C138.28707928 103.46484692 138.28323397 105.25000544 138.27734375 107.03515625 C138.28645279 108.28230911 138.28645279 108.28230911 138.29574585 109.55465698 C138.21791727 116.03564741 136.77490525 120.14949423 132.31640625 125.04296875 C128.1317194 128.79845695 124.92105068 128.61082204 119.4375 128.59765625 C115.46362832 128.187619 111.97693579 127.09771763 108.25390625 125.73046875 C102.25483634 123.54231443 97.25836475 122.43438118 90.87890625 123.23046875 C90.08355469 123.32585937 89.28820312 123.42125 88.46875 123.51953125 C68.95783604 126.67343493 55.81435596 140.32089585 42.87890625 154.23046875 C42.54890625 154.89046875 42.21890625 155.55046875 41.87890625 156.23046875 C41.21890625 156.23046875 40.55890625 156.23046875 39.87890625 156.23046875 C39.61722656 156.82988281 39.35554687 157.42929688 39.0859375 158.046875 C37.80670437 160.36108639 36.61640183 161.5270632 34.56640625 163.16796875 C31.46083081 165.67336556 28.67996775 168.38753787 25.87890625 171.23046875 C16.87890625 180.23046875 7.87890625 189.23046875 -1.12109375 198.23046875 C-2.01054687 199.12378906 -2.9 200.01710937 -3.81640625 200.9375 C-10.3671444 207.45492931 -15.47574114 209.27945367 -24.55859375 209.66796875 C-32.53960199 209.53052314 -36.43573547 206.91582703 -41.93359375 201.41796875 C-44.40581583 197.81558801 -45.87408971 194.39276601 -47.12109375 190.23046875 C-47.29511719 189.68849854 -47.46914062 189.14652832 -47.6484375 188.58813477 C-48.31581138 185.25919389 -48.2568096 181.95872108 -48.26171875 178.578125 C-48.28004103 177.06443801 -48.2996108 175.55076569 -48.3203125 174.03710938 C-48.34929704 171.6625878 -48.37109456 169.28901679 -48.37158203 166.91430664 C-48.37492253 164.61389848 -48.40948919 162.31565587 -48.44921875 160.015625 C-48.44214905 159.31027115 -48.43507935 158.6049173 -48.42779541 157.87818909 C-48.51277837 154.42295409 -49.09994461 152.26611263 -50.86694336 149.28808594 C-55.96808463 146.06260626 -60.94170052 146.50402991 -66.859375 146.5234375 C-68.09527878 146.50831619 -69.33118256 146.49319489 -70.60453796 146.47761536 C-73.8778747 146.44196153 -77.15038981 146.42758032 -80.42388916 146.42358398 C-83.76912825 146.41423719 -87.11391106 146.37639614 -90.45898438 146.34179688 C-97.01302803 146.27887171 -103.56677205 146.24399582 -110.12109375 146.23046875 C-111.41263987 142.35583038 -111.23192857 138.71419908 -111.17578125 134.6796875 C-111.16402863 133.82929398 -111.152276 132.97890045 -111.14016724 132.10273743 C-111.11141617 130.29621888 -111.07924855 128.48975199 -111.04394531 126.68334961 C-111.01238765 124.85960667 -110.99099965 123.03565548 -110.98046875 121.21166992 C-110.88601247 105.0197974 -109.08506715 91.3022257 -97.12109375 79.23046875 C-88.69800045 71.33101358 -79.44717847 68.07615306 -67.9453125 68.1328125 C-66.20991211 68.13764648 -66.20991211 68.13764648 -64.43945312 68.14257812 C-63.24126953 68.15095703 -62.04308594 68.15933594 -60.80859375 68.16796875 C-58.98231445 68.17473633 -58.98231445 68.17473633 -57.11914062 68.18164062 C-54.11974149 68.19340297 -51.12044286 68.20984049 -48.12109375 68.23046875 C-48.14727783 67.20276367 -48.17346191 66.17505859 -48.20043945 65.11621094 C-48.29198921 61.24729807 -48.34871665 57.37847759 -48.39575195 53.50878906 C-48.42066072 51.84456197 -48.4546012 50.18044154 -48.49829102 48.51660156 C-48.83492936 35.35206207 -47.40674668 24.58329964 -38.77734375 13.97265625 C-28.20259046 2.84921293 -14.80873063 -0.0973536 0 0 Z " fill="#3B98DB" transform="translate(195.12109375,46.76953125)"/>
<path d="M0 0 C5.1075534 3.04944644 9.00720847 7.53954219 10.5 13.375 C11.73210523 20.55980638 9.71539851 26.54491222 5.81700134 32.6026001 C3.31036326 35.97599461 0.19041468 38.70176612 -2.90625 41.5234375 C-4.01425209 42.55234352 -4.01425209 42.55234352 -5.14463806 43.60203552 C-8.44492654 46.66320889 -11.7636265 49.70377848 -15.09036255 52.73617554 C-20.54902615 57.71268947 -25.95262091 62.73920481 -31.29956055 67.83569336 C-33.15152534 69.57965279 -35.02439952 71.30165453 -36.91674805 73.00170898 C-48.98801554 83.35551936 -48.98801554 83.35551936 -54.76367188 97.57958984 C-55.249437 108.8513503 -53.71273247 120.16202372 -46.75 129.3125 C-40.36130625 136.00541726 -31.76912001 138.10764507 -22.8046875 138.5625 C-9.65664785 138.85086111 3.41858655 137.53721556 16.5 136.375 C16.60212012 143.15180466 16.67176532 149.92840805 16.71972656 156.70581055 C16.73973827 159.00731827 16.76695631 161.30877582 16.80175781 163.61010742 C16.85073699 166.93420862 16.87307401 170.25763276 16.890625 173.58203125 C16.92159271 175.10459282 16.92159271 175.10459282 16.95318604 176.65791321 C16.95663728 187.85483487 13.42803405 197.35295764 5.5 205.375 C-6.38572676 215.27240815 -19.30627948 216.57514401 -34.24829102 216.61523438 C-36.40096246 216.62483701 -38.55263408 216.65587185 -40.70507812 216.6875 C-53.70535343 216.78762607 -66.22980458 214.95306692 -78.5625 210.6875 C-79.6774585 210.30621948 -79.6774585 210.30621948 -80.81494141 209.91723633 C-107.98028845 200.24345414 -126.88522513 180.96326372 -139.5 155.375 C-139.89574219 154.16328125 -140.29148437 152.9515625 -140.69921875 151.703125 C-142.59947656 148.19115178 -142.95646076 147.90495588 -146.30859375 146.3046875 C-154.04446663 142.4703989 -159.62995298 135.62175938 -165.5625 129.5 C-168.00745661 126.99840717 -170.45791953 124.50226746 -172.91015625 122.0078125 C-173.49465546 121.41176712 -174.07915466 120.81572174 -174.68136597 120.20161438 C-178.24104965 116.59015429 -181.88309217 113.15024375 -185.75366211 109.87011719 C-188.88116427 107.19252411 -191.8156091 104.32320078 -194.75 101.4375 C-195.348125 100.86837891 -195.94625 100.29925781 -196.5625 99.71289062 C-202.71873924 93.64518137 -206.3692664 87.13392702 -206.5390625 78.35546875 C-206.13583783 69.50003474 -201.42022558 62.88420098 -195.125 56.9375 C-187.73476864 50.87089216 -181.74250035 50.04532484 -172.2578125 49.78125 C-161.77458234 51.43764395 -155.02461398 58.1303341 -147.91894531 65.46899414 C-146.35550449 67.08262131 -144.77341535 68.67606142 -143.1875 70.26757812 C-135.5 78.06276098 -135.5 78.06276098 -135.5 80.375 C-134.84 80.375 -134.18 80.375 -133.5 80.375 C-132.7575 81.15875 -132.015 81.9425 -131.25 82.75 C-126.81954282 86.97907276 -122.51453239 87.57877308 -116.625 87.73828125 C-111.13174196 86.79917647 -107.12879593 83.4351186 -103.16723633 79.73242188 C-102.40550849 79.0208556 -102.40550849 79.0208556 -101.62839222 78.29491425 C-94.96622355 72.01363934 -88.54535248 65.48233325 -82.11108971 58.96955872 C-79.77207067 56.60349906 -77.42836223 54.2421784 -75.08320618 51.88220215 C-68.42501888 45.18163267 -61.76990132 38.4780936 -55.13061523 31.75878906 C-51.04704782 27.62668535 -46.95376511 23.50442606 -42.85398293 19.38841248 C-41.30142398 17.82597826 -39.75252238 16.25990067 -38.2074337 14.69007874 C-36.05199477 12.50085653 -33.88438918 10.32440079 -31.71362305 8.15039062 C-31.08438934 7.50520477 -30.45515564 6.86001892 -29.80685425 6.19528198 C-21.81802754 -1.73940211 -10.74494608 -4.87294519 0 0 Z " fill="#CE39CB" transform="translate(290.5,189.625)"/>
<path d="M0 0 C-0.00785522 1.07483643 -0.00785522 1.07483643 -0.01586914 2.17138672 C-0.03660667 5.40591562 -0.04964984 8.64043056 -0.0625 11.875 C-0.07506836 13.56689453 -0.07506836 13.56689453 -0.08789062 15.29296875 C-0.09272461 16.90751953 -0.09272461 16.90751953 -0.09765625 18.5546875 C-0.10551147 20.04718018 -0.10551147 20.04718018 -0.11352539 21.56982422 C-0.1639415 24.00960773 -0.1639415 24.00960773 1 26 C1.66 26 2.32 26 3 26 C3.27972656 26.65226562 3.55945313 27.30453125 3.84765625 27.9765625 C6.99670233 34.84168547 10.17937325 39.89615259 17.2734375 42.9921875 C19.50593212 43.77096469 21.70420202 44.43619096 24 45 C25.13308594 45.2784375 25.13308594 45.2784375 26.2890625 45.5625 C29.78252794 46.12628693 33.22112512 46.19066562 36.75 46.1875 C37.50845215 46.18814453 38.2669043 46.18878906 39.04833984 46.18945312 C50.06595568 46.0932103 61.03310353 44.97344299 72 44 C72.10212012 50.77680466 72.17176532 57.55340805 72.21972656 64.33081055 C72.23973827 66.63231827 72.26695631 68.93377582 72.30175781 71.23510742 C72.35073699 74.55920862 72.37307401 77.88263276 72.390625 81.20703125 C72.42159271 82.72959282 72.42159271 82.72959282 72.45318604 84.28291321 C72.45663728 95.47983487 68.92803405 104.97795764 61 113 C49.11427324 122.89740815 36.19372052 124.20014401 21.25170898 124.24023438 C19.09903754 124.24983701 16.94736592 124.28087185 14.79492188 124.3125 C1.79464657 124.41262607 -10.72980458 122.57806692 -23.0625 118.3125 C-23.80580566 118.05831299 -24.54911133 117.80412598 -25.31494141 117.54223633 C-49.55878353 108.90882378 -67.10918018 92.78889717 -80 70.75 C-80.59735962 69.75806641 -80.59735962 69.75806641 -81.20678711 68.74609375 C-83.70728821 64.33805648 -84.43026672 61.19009227 -84 56 C-82.81664062 56.04640625 -81.63328125 56.0928125 -80.4140625 56.140625 C-71.37460015 56.38733835 -64.17702253 56.28394679 -56 52 C-54.33922921 51.3187786 -52.67382056 50.64849592 -51 50 C-51 49.34 -51 48.68 -51 48 C-49.42578125 46.4140625 -49.42578125 46.4140625 -47.3125 44.625 C-46.58417969 44.00753906 -45.85585937 43.39007813 -45.10546875 42.75390625 C-44.41066406 42.17511719 -43.71585938 41.59632813 -43 41 C-42.05125 40.195625 -41.1025 39.39125 -40.125 38.5625 C-38 37 -38 37 -36 37 C-35.7525 36.4225 -35.505 35.845 -35.25 35.25 C-33.81700012 32.67060021 -32.21575324 30.93878408 -30 29 C-29.34 29 -28.68 29 -28 29 C-27.79375 28.278125 -27.5875 27.55625 -27.375 26.8125 C-25.93282158 23.86258959 -24.34197431 22.36662951 -21.73046875 20.40625 C-19.30768135 18.43739342 -17.1890354 16.22629557 -15 14 C-12.58629781 11.55955223 -10.16831507 9.12337545 -7.75 6.6875 C-6.79480469 5.71973633 -6.79480469 5.71973633 -5.8203125 4.73242188 C-5.21445313 4.12333984 -4.60859375 3.51425781 -3.984375 2.88671875 C-3.43491211 2.33201904 -2.88544922 1.77731934 -2.31933594 1.20581055 C-1 0 -1 0 0 0 Z " fill="#7E31BF" transform="translate(235,282)"/>
<path d="M0 0 C11.51773601 -0.09267693 23.03538333 -0.16375345 34.55341625 -0.20724869 C39.9017116 -0.22812418 45.24975186 -0.25644144 50.59790039 -0.30175781 C55.7590975 -0.34521646 60.92004922 -0.36913739 66.08141518 -0.37950897 C68.05062027 -0.38690027 70.01981193 -0.40133375 71.98891258 -0.42292023 C74.74705408 -0.45195435 77.50418146 -0.45595599 80.26245117 -0.45410156 C81.07669052 -0.46848267 81.89092987 -0.48286377 82.72984314 -0.49768066 C86.62842614 -0.46931486 88.54419209 -0.2872511 91.9210968 1.84088135 C96.26558395 6.35300257 96.30725863 9.85755906 96.30078125 15.83203125 C96.30506638 16.70139816 96.3093515 17.57076508 96.31376648 18.46647644 C96.31950969 20.30649953 96.32001011 22.14654532 96.31567383 23.98657227 C96.3125235 26.79157699 96.33593908 29.59551706 96.36132812 32.40039062 C96.36360219 34.19010284 96.36430411 35.97981788 96.36328125 37.76953125 C96.372491 38.60410355 96.38170074 39.43867584 96.39118958 40.29853821 C96.33997737 46.79950791 94.91031929 50.9033081 90.4375 55.8125 C86.25281315 59.5679882 83.04214443 59.38035329 77.55859375 59.3671875 C73.58472207 58.95715025 70.09802954 57.86724888 66.375 56.5 C60.37593009 54.31184568 55.3794585 53.20391243 49 54 C47.80697266 54.14308594 47.80697266 54.14308594 46.58984375 54.2890625 C27.07892979 57.44296618 13.93544971 71.0904271 1 85 C0.67 85.66 0.34 86.32 0 87 C-0.66 87 -1.32 87 -2 87 C-2.26167969 87.59941406 -2.52335937 88.19882813 -2.79296875 88.81640625 C-4.07220188 91.13061764 -5.26250442 92.29659445 -7.3125 93.9375 C-10.41807544 96.44289681 -13.1989385 99.15706912 -16 102 C-25 111 -34 120 -43 129 C-43.88429687 129.89203125 -44.76859375 130.7840625 -45.6796875 131.703125 C-51.01219584 136.98176962 -54.3401641 139.12232957 -61.95117188 139.08789062 C-62.68916016 139.07951172 -63.42714844 139.07113281 -64.1875 139.0625 C-64.93708984 139.05798828 -65.68667969 139.05347656 -66.45898438 139.04882812 C-68.30602383 139.03706354 -70.15302213 139.01912865 -72 139 C-72.33 138.34 -72.66 137.68 -73 137 C-73.99 136.67 -74.98 136.34 -76 136 C-76 135.34 -76 134.68 -76 134 C-74.34501189 132.62084324 -72.62169626 131.32349612 -70.875 130.0625 C-69.77620824 129.25936372 -68.67860188 128.45460378 -67.58203125 127.6484375 C-67.00018066 127.22143555 -66.41833008 126.79443359 -65.81884766 126.35449219 C-62.6882712 124.0231582 -59.62602756 121.60588085 -56.5625 119.1875 C-55.98419434 118.73189697 -55.40588867 118.27629395 -54.81005859 117.80688477 C-52.25377035 115.78999338 -49.71501672 113.76218085 -47.21484375 111.67578125 C-45 110 -45 110 -43 110 C-42.773125 109.278125 -42.54625 108.55625 -42.3125 107.8125 C-40.73233924 104.42644123 -38.72808675 102.53322341 -36 100 C-32.76743758 96.98715538 -32.76743758 96.98715538 -31 93 C-28.625 90.3125 -28.625 90.3125 -26 88 C-25.01 88 -24.02 88 -23 88 C-22.896875 87.4225 -22.79375 86.845 -22.6875 86.25 C-21.88350079 83.61872985 -20.86932485 82.01311907 -19 80 C-18.01 80 -17.02 80 -16 80 C-15.731875 79.360625 -15.46375 78.72125 -15.1875 78.0625 C-14 76 -14 76 -11 75 C-10.64587656 73.67203709 -10.31478446 72.33783393 -10 71 C-8.5625 69.25 -8.5625 69.25 -7 68 C-6.34 68 -5.68 68 -5 68 C-5 67.34 -5 66.68 -5 66 C-4.34 66 -3.68 66 -3 66 C-2.505 64.515 -2.505 64.515 -2 63 C-1.34 63 -0.68 63 0 63 C0.495 62.01 0.495 62.01 1 61 C1.66 61 2.32 61 3 61 C3 60.34 3 59.68 3 59 C3.66 59 4.32 59 5 59 C5 58.34 5 57.68 5 57 C5.66 57 6.32 57 7 57 C7 56.01 7 55.02 7 54 C8.64556566 52.96564444 10.3170608 51.97236487 12 51 C12.804375 50.195625 13.60875 49.39125 14.4375 48.5625 C17 46 17 46 20.25 43.875 C23.26003892 42.22935878 23.26003892 42.22935878 24 39 C26.21484375 37.68359375 26.21484375 37.68359375 28.9375 36.4375 C32.78077076 34.67562389 32.78077076 34.67562389 36 32 C38.18614424 29.81385576 39.53879949 29.31743465 42.4375 28.375 C43.21996094 28.11460937 44.00242187 27.85421875 44.80859375 27.5859375 C47 27 47 27 50 27 C50 26.34 50 25.68 50 25 C51.79296875 23.66796875 51.79296875 23.66796875 54.1875 22.1875 C57.93709499 19.77369822 60.92087705 17.24556203 64 14 C65.08066461 13.20469426 66.16408547 12.41312236 67.25 11.625 C70.76287513 8.81351941 70.76287513 8.81351941 71 2 C35.855 1.505 35.855 1.505 0 1 C0 0.67 0 0.34 0 0 Z " fill="#4938BA" transform="translate(237,116)"/>
<path d="M0 0 C-1.66666667 1 -3.33333333 2 -5 3 C-5.86625 3.556875 -6.7325 4.11375 -7.625 4.6875 C-10 6 -10 6 -13 6 C-13 6.99 -13 7.98 -13 9 C-12.01 9.495 -12.01 9.495 -11 10 C-11.66 10 -12.32 10 -13 10 C-13.33 10.66 -13.66 11.32 -14 12 C-14.99 11.67 -15.98 11.34 -17 11 C-17.45375 11.804375 -17.9075 12.60875 -18.375 13.4375 C-20 16 -20 16 -22 17 C-21.505 19.475 -21.505 19.475 -21 22 C-21.804375 22.268125 -22.60875 22.53625 -23.4375 22.8125 C-24.283125 23.204375 -25.12875 23.59625 -26 24 C-28.97934647 32.93803942 -29.18119038 41.9553374 -29.1875 51.3125 C-29.19974609 52.28767578 -29.21199219 53.26285156 -29.22460938 54.26757812 C-29.22654297 55.20666016 -29.22847656 56.14574219 -29.23046875 57.11328125 C-29.23457764 57.95673096 -29.23868652 58.80018066 -29.24291992 59.66918945 C-28.97995278 62.19235254 -28.26705474 63.82149444 -27 66 C-27.66 66 -28.32 66 -29 66 C-29 66.66 -29 67.32 -29 68 C-28.05125 67.979375 -27.1025 67.95875 -26.125 67.9375 C-23 68 -23 68 -21 69 C-21 69.66 -21 70.32 -21 71 C-20.2575 71.226875 -19.515 71.45375 -18.75 71.6875 C-15.42153592 73.27608513 -14.03334089 74.94998866 -12 78 C-11.25 80.3125 -11.25 80.3125 -11 82 C-14.0421231 84.619606 -16.1632463 86.04081157 -20 87 C-20.78375 87.639375 -21.5675 88.27875 -22.375 88.9375 C-25 91 -25 91 -27.9375 91.9375 C-31.04810353 93.01668898 -32.68618881 94.40805029 -35.1015625 96.57421875 C-38.48457255 99.11495675 -42.35793309 100.75456185 -46.16015625 102.578125 C-48.4164875 103.70784244 -50.39636404 104.84924409 -52.4375 106.3125 C-55.12084741 108.07958244 -56.86280342 108.52942051 -60 109 C-64.43818052 110.24417881 -64.43818052 110.24417881 -68 113 C-69.6635479 113.67441131 -71.33066942 114.3400321 -73 115 C-74.67739862 115.98189187 -76.34467377 116.98133771 -78 118 C-78.721875 118.2475 -79.44375 118.495 -80.1875 118.75 C-82.60671919 120.41842702 -82.72886289 122.16404468 -83.37109375 124.9296875 C-84.3583738 128.17973983 -86.07840762 130.9638521 -87.78125 133.88671875 C-88.93709428 135.8909231 -89.98629467 137.92096545 -91 140 C-88.53576104 141.23211948 -86.84765337 141.15779908 -84.09130859 141.20532227 C-83.07040131 141.22526749 -82.04949402 141.24521271 -80.99765015 141.26576233 C-79.89240997 141.28247482 -78.7871698 141.29918732 -77.6484375 141.31640625 C-76.5192691 141.33718735 -75.39010071 141.35796844 -74.22671509 141.37937927 C-70.60954028 141.44491335 -66.99229119 141.50377774 -63.375 141.5625 C-60.92707556 141.60568154 -58.47915872 141.64929571 -56.03125 141.69335938 C-50.0209125 141.80059867 -44.01050065 141.90235787 -38 142 C-38 142.33 -38 142.66 -38 143 C-56.48 143 -74.96 143 -94 143 C-95.29154612 139.12536163 -95.11083482 135.48373033 -95.0546875 131.44921875 C-95.04293488 130.59882523 -95.03118225 129.7484317 -95.01907349 128.87226868 C-94.99032242 127.06575013 -94.9581548 125.25928324 -94.92285156 123.45288086 C-94.8912939 121.62913792 -94.8699059 119.80518673 -94.859375 117.98120117 C-94.76491872 101.78932865 -92.9639734 88.07175695 -81 76 C-72.5769067 68.10054483 -63.32608472 64.84568431 -51.82421875 64.90234375 C-50.08881836 64.90717773 -50.08881836 64.90717773 -48.31835938 64.91210938 C-47.12017578 64.92048828 -45.92199219 64.92886719 -44.6875 64.9375 C-42.8612207 64.94426758 -42.8612207 64.94426758 -40.99804688 64.95117188 C-37.99864774 64.96293422 -34.99934911 64.97937174 -32 65 C-32.02618408 63.97229492 -32.05236816 62.94458984 -32.0793457 61.88574219 C-32.17089546 58.01682932 -32.2276229 54.14800884 -32.2746582 50.27832031 C-32.29956697 48.61409322 -32.33350745 46.94997279 -32.37719727 45.28613281 C-32.71383561 32.12159332 -31.28565293 21.35283089 -22.65625 10.7421875 C-17.38093327 5.1931515 -8.04371898 -2.77182208 0 0 Z " fill="#32D1D0" transform="translate(179,50)"/>
<path d="M0 0 C9.04657794 4.91440042 14.87100246 11.54851675 18.0625 21.4375 C19.46562169 31.20538564 17.97745285 39.40549384 12.625 47.65234375 C7.53042877 54.22874939 0.16031618 57.81136653 -7.9375 59.4375 C-17.2278851 60.37738332 -25.83838182 58.16542613 -33.1171875 52.2421875 C-39.54246992 45.87205772 -43.18141088 38.39980092 -43.375 29.3125 C-43.21619846 20.6181156 -40.59917708 12.87755328 -34.625 6.4375 C-25.50253416 -1.74676914 -11.52017315 -4.72105169 0 0 Z " fill="#ED417E" transform="translate(359.9375,38.5625)"/>
<path d="M0 0 C0 6.6 0 13.2 0 20 C-2.31 21.32 -4.62 22.64 -7 24 C-7.928125 24.7425 -8.85625 25.485 -9.8125 26.25 C-12 28 -12 28 -14 28 C-14 28.66 -14 29.32 -14 30 C-15.57421875 31.515625 -15.57421875 31.515625 -17.6875 33.25 C-21.21733339 36.24106935 -24.04273825 39.43612046 -27 43 C-28.75740938 44.56569199 -30.56185807 46.06196875 -32.375 47.5625 C-34.54541773 49.48248492 -36.19970898 51.73511775 -38 54 C-43.28846154 59 -43.28846154 59 -46 59 C-46 59.66 -46 60.32 -46 61 C-47.86967605 61.98929461 -49.74601378 62.96600469 -51.625 63.9375 C-52.66914063 64.48277344 -53.71328125 65.02804687 -54.7890625 65.58984375 C-60.46137788 68.08097009 -66.06414682 68.20485085 -72.1875 68.25 C-72.89841797 68.270625 -73.60933594 68.29125 -74.34179688 68.3125 C-79.51334201 68.35142038 -79.51334201 68.35142038 -81.92578125 66.609375 C-84.31535749 63.02935533 -84.07896047 60.26386526 -84 56 C-82.81664062 56.04640625 -81.63328125 56.0928125 -80.4140625 56.140625 C-71.37460015 56.38733835 -64.17702253 56.28394679 -56 52 C-54.33922921 51.3187786 -52.67382056 50.64849592 -51 50 C-51 49.34 -51 48.68 -51 48 C-49.42578125 46.4140625 -49.42578125 46.4140625 -47.3125 44.625 C-46.58417969 44.00753906 -45.85585937 43.39007813 -45.10546875 42.75390625 C-44.41066406 42.17511719 -43.71585938 41.59632813 -43 41 C-42.05125 40.195625 -41.1025 39.39125 -40.125 38.5625 C-38 37 -38 37 -36 37 C-35.7525 36.4225 -35.505 35.845 -35.25 35.25 C-33.81700012 32.67060021 -32.21575324 30.93878408 -30 29 C-29.34 29 -28.68 29 -28 29 C-27.79375 28.278125 -27.5875 27.55625 -27.375 26.8125 C-25.93282158 23.86258959 -24.34197431 22.36662951 -21.73046875 20.40625 C-19.30768135 18.43739342 -17.1890354 16.22629557 -15 14 C-12.58629781 11.55955223 -10.16831507 9.12337545 -7.75 6.6875 C-6.79480469 5.71973633 -6.79480469 5.71973633 -5.8203125 4.73242188 C-5.21445313 4.12333984 -4.60859375 3.51425781 -3.984375 2.88671875 C-3.43491211 2.33201904 -2.88544922 1.77731934 -2.31933594 1.20581055 C-1 0 -1 0 0 0 Z " fill="#602D9D" transform="translate(235,282)"/>
<path d="M0 0 C3.59279639 5.38919458 2.4962183 12.71043301 2 19 C1.16155621 22.15369197 -0.0542207 24.40156119 -2 27 C-2.40089844 27.61101562 -2.80179687 28.22203125 -3.21484375 28.8515625 C-7.8696098 35.19283799 -15.3941875 38.48502109 -23 40 C-32.29504039 40.94035428 -40.88130962 38.72004556 -48.17578125 32.81640625 C-52.7274326 28.28424806 -56.8775678 22.65827428 -57.09765625 16.08203125 C-57.08605469 15.00308594 -57.07445312 13.92414063 -57.0625 12.8125 C-57.05347656 11.72582031 -57.04445313 10.63914062 -57.03515625 9.51953125 C-57.02355469 8.68808594 -57.01195312 7.85664062 -57 7 C-53.85750265 8.23828705 -50.76140888 9.53822521 -47.6875 10.9375 C-44.17756855 12.51172174 -40.64892073 13.91835242 -37.01953125 15.19140625 C-35 16 -35 16 -32.1875 17.5625 C-26.0617844 20.32507763 -18.69288473 20.02873217 -12.265625 18.23828125 C-10.05381136 17.29937378 -8.05374324 16.24271088 -6 15 C-5.01 14.484375 -4.02 13.96875 -3 13.4375 C0.22768294 9.50376142 -0.09382387 4.94707671 0 0 Z " fill="#CD2A6A" transform="translate(375,58)"/>
<path d="M0 0 C3.26596162 2.73775219 6.1991151 5.71801357 9.125 8.8125 C9.89070313 9.60076172 10.65640625 10.38902344 11.4453125 11.20117188 C13.30897235 13.1230711 15.15981467 15.05565928 17 17 C13.37673261 18.2077558 12.35853631 17.54311128 9 16 C8.34 16.66 7.68 17.32 7 18 C4 13.25 4 13.25 4 11 C1.36 11 -1.28 11 -4 11 C-4.125 6.25 -4.125 6.25 -3 4 C-4.10041919 2.31318262 -4.10041919 2.31318262 -6 1 C-9.14921909 1.23283149 -9.14921909 1.23283149 -12 2 C-12.495 0.515 -12.495 0.515 -13 -1 C-16.69418201 -2.231394 -19.2056261 -1.64432764 -23 -1 C-23.33 -0.01 -23.66 0.98 -24 2 C-30.75 3 -30.75 3 -33 3 C-36.82338506 6.25879193 -38.89325506 8.87917809 -39.375 13.9375 C-39.25125 14.948125 -39.1275 15.95875 -39 17 C-40.32 17.33 -41.64 17.66 -43 18 C-43.33 20.97 -43.66 23.94 -44 27 C-43.34 27 -42.68 27 -42 27 C-42 27.66 -42 28.32 -42 29 C-41.34 29.33 -40.68 29.66 -40 30 C-40.66 31.32 -41.32 32.64 -42 34 C-41.34 34 -40.68 34 -40 34 C-40 34.99 -40 35.98 -40 37 C-39.01 37 -38.02 37 -37 37 C-37 38.98 -37 40.96 -37 43 C-34.36 43 -31.72 43 -29 43 C-28.87625 44.670625 -28.87625 44.670625 -28.75 46.375 C-28.43354372 50.00907626 -28.43354372 50.00907626 -26.1875 51.25 C-25.465625 51.4975 -24.74375 51.745 -24 52 C-20.84311497 54.04269032 -19.58097481 55.64042852 -18 59 C-16.6949419 60.68889872 -15.36639342 62.3603279 -14 64 C-17.48857803 64 -17.77185378 63.62331434 -20.1875 61.32421875 C-20.79875732 60.74881348 -21.41001465 60.1734082 -22.03979492 59.58056641 C-22.6866626 58.95585449 -23.33353027 58.33114258 -24 57.6875 C-24.66555908 57.05247559 -25.33111816 56.41745117 -26.0168457 55.76318359 C-27.37235272 54.46576276 -28.72433448 53.16464876 -30.07275391 51.85986328 C-31.79999432 50.19301283 -33.54301616 48.54525568 -35.29296875 46.90234375 C-41.95995314 40.56116476 -47.41039035 34.63029102 -48 25 C-48.16722048 16.35470117 -44.65997941 9.98411043 -38.8828125 3.6953125 C-27.60544082 -6.95770642 -13.27337836 -8.57879401 0 0 Z " fill="#E290E5" transform="translate(132,245)"/>
<path d="M0 0 C1.32 0 2.64 0 4 0 C3.55480071 4.7632335 1.79956551 6.58315322 -1.70336914 9.72900391 C-2.71461392 10.65155509 -3.72567821 11.57430414 -4.73658752 12.4972229 C-5.54291217 13.22287382 -5.54291217 13.22287382 -6.3655262 13.96318436 C-9.23636142 16.56535319 -12.04317906 19.23559545 -14.86132812 21.89453125 C-18.43692425 25.26181693 -22.02659323 28.60661335 -25.69262695 31.87548828 C-41.08663096 44.82450728 -41.08663096 44.82450728 -48.55810547 62.67089844 C-48.80036206 69.21543741 -48.23466395 75.57308262 -47 82 C-47.99 82 -48.98 82 -50 82 C-50 73.75 -50 65.5 -50 57 C-54.80698472 61.88599919 -54.80698472 61.88599919 -59.6027832 66.78295898 C-60.20437256 67.38954346 -60.80596191 67.99612793 -61.42578125 68.62109375 C-62.03848877 69.2442749 -62.65119629 69.86745605 -63.2824707 70.50952148 C-65 72 -65 72 -68 73 C-67 70 -67 70 -64.0625 67.5625 C-61.38705307 65.32386073 -60.17591989 64.1749837 -59 61 C-58.34 61 -57.68 61 -57 61 C-57 60.34 -57 59.68 -57 59 C-56.01 58.505 -56.01 58.505 -55 58 C-55 57.34 -55 56.68 -55 56 C-54.34 56 -53.68 56 -53 56 C-52.855625 54.906875 -52.71125 53.81375 -52.5625 52.6875 C-52 49 -52 49 -51 46 C-48.69 46 -46.38 46 -44 46 C-43.87625 45.236875 -43.7525 44.47375 -43.625 43.6875 C-43 41 -43 41 -41 38 C-40.01 38.66 -39.02 39.32 -38 40 C-35.84725052 39.69159401 -35.84725052 39.69159401 -34 39 C-34.495 35.04 -34.495 35.04 -35 31 C-32.69 30.67 -30.38 30.34 -28 30 C-28 29.34 -28 28.68 -28 28 C-27.625 25.4375 -27.625 25.4375 -27 23 C-26.34 22.67 -25.68 22.34 -25 22 C-25 22.66 -25 23.32 -25 24 C-24.34 24 -23.68 24 -23 24 C-23 23.34 -23 22.68 -23 22 C-21.68 22.33 -20.36 22.66 -19 23 C-19.33 21.35 -19.66 19.7 -20 18 C-19.34 18 -18.68 18 -18 18 C-18.495 16.515 -18.495 16.515 -19 15 C-16.36 15 -13.72 15 -11 15 C-11.20625 14.4225 -11.4125 13.845 -11.625 13.25 C-12 11 -12 11 -11.5 8.875 C-9.2370059 6.04625738 -6.42298757 5.87130593 -3 5 C-2.67 4.34 -2.34 3.68 -2 3 C-1.34 3 -0.68 3 0 3 C0 2.01 0 1.02 0 0 Z " fill="#B74FAE" transform="translate(284,226)"/>
<path d="M0 0 C-1.66666667 1 -3.33333333 2 -5 3 C-5.86625 3.556875 -6.7325 4.11375 -7.625 4.6875 C-10 6 -10 6 -13 6 C-13 6.99 -13 7.98 -13 9 C-12.01 9.495 -12.01 9.495 -11 10 C-11.66 10 -12.32 10 -13 10 C-13.33 10.66 -13.66 11.32 -14 12 C-14.99 11.67 -15.98 11.34 -17 11 C-17.45375 11.804375 -17.9075 12.60875 -18.375 13.4375 C-20 16 -20 16 -22 17 C-21.505 19.475 -21.505 19.475 -21 22 C-21.804375 22.268125 -22.60875 22.53625 -23.4375 22.8125 C-24.283125 23.204375 -25.12875 23.59625 -26 24 C-28.97934647 32.93803942 -29.18119038 41.9553374 -29.1875 51.3125 C-29.20586914 52.77526367 -29.20586914 52.77526367 -29.22460938 54.26757812 C-29.22654297 55.20666016 -29.22847656 56.14574219 -29.23046875 57.11328125 C-29.23457764 57.95673096 -29.23868652 58.80018066 -29.24291992 59.66918945 C-28.97995278 62.19235254 -28.26705474 63.82149444 -27 66 C-27.66 66 -28.32 66 -29 66 C-29 66.66 -29 67.32 -29 68 C-28.05125 67.979375 -27.1025 67.95875 -26.125 67.9375 C-23 68 -23 68 -21 69 C-21 69.66 -21 70.32 -21 71 C-22.79240663 70.88610125 -24.58394835 70.75852313 -26.375 70.625 C-27.87160156 70.52058594 -27.87160156 70.52058594 -29.3984375 70.4140625 C-32 70 -32 70 -34 68 C-38.06432695 67.54000324 -42.1626795 67.67603165 -46.25 67.6875 C-47.38308594 67.67138672 -48.51617187 67.65527344 -49.68359375 67.63867188 C-55.5927312 67.63520814 -59.88452346 67.73749793 -65 71 C-66.69968105 71.70862074 -68.40772109 72.39766004 -70.125 73.0625 C-74.68549569 74.77545944 -74.68549569 74.77545944 -79 77 C-80.29231642 80.04199472 -80.29231642 80.04199472 -81 83 C-81.99 83 -82.98 83 -84 83 C-84 83.66 -84 84.32 -84 85 C-84.66 85 -85.32 85 -86 85 C-86.103125 85.7425 -86.20625 86.485 -86.3125 87.25 C-87.04253504 90.17014018 -88.06789398 91.73187554 -90 94 C-91 91 -91 91 -89.5625 87.375 C-84.18770516 77.31116001 -76.06144473 69.94687454 -65.2109375 66.578125 C-60.66705442 65.38997183 -56.53199331 64.87915274 -51.82421875 64.90234375 C-50.08881836 64.90717773 -50.08881836 64.90717773 -48.31835938 64.91210938 C-47.12017578 64.92048828 -45.92199219 64.92886719 -44.6875 64.9375 C-42.8612207 64.94426758 -42.8612207 64.94426758 -40.99804688 64.95117188 C-37.99864774 64.96293422 -34.99934911 64.97937174 -32 65 C-32.02618408 63.97229492 -32.05236816 62.94458984 -32.0793457 61.88574219 C-32.17089546 58.01682932 -32.2276229 54.14800884 -32.2746582 50.27832031 C-32.29956697 48.61409322 -32.33350745 46.94997279 -32.37719727 45.28613281 C-32.71383561 32.12159332 -31.28565293 21.35283089 -22.65625 10.7421875 C-17.38093327 5.1931515 -8.04371898 -2.77182208 0 0 Z " fill="#35BAD3" transform="translate(179,50)"/>
<path d="M0 0 C0.66 0.99 1.32 1.98 2 3 C1.34 3 0.68 3 0 3 C-0.96207117 7.92333931 -1.20914213 12.68400403 -1.31640625 17.6796875 C-1.33718735 18.49245148 -1.35796844 19.30521545 -1.37937927 20.14260864 C-1.44437579 22.71999257 -1.50352593 25.29747194 -1.5625 27.875 C-1.60573277 29.63021791 -1.64934852 31.38542643 -1.69335938 33.140625 C-1.80000549 37.42698738 -1.90141114 41.71344504 -2 46 C-2.81678223 46.01458252 -3.63356445 46.02916504 -4.47509766 46.04418945 C-8.1921976 46.11886923 -11.90841919 46.21546612 -15.625 46.3125 C-17.55279297 46.34633789 -17.55279297 46.34633789 -19.51953125 46.38085938 C-20.76347656 46.41630859 -22.00742188 46.45175781 -23.2890625 46.48828125 C-24.43068848 46.51446533 -25.57231445 46.54064941 -26.74853516 46.56762695 C-30.38069367 47.05062385 -32.82015608 48.22003401 -36 50 C-37.69968105 50.70862074 -39.40772109 51.39766004 -41.125 52.0625 C-45.68549569 53.77545944 -45.68549569 53.77545944 -50 56 C-51.29231642 59.04199472 -51.29231642 59.04199472 -52 62 C-52.99 62 -53.98 62 -55 62 C-55 62.66 -55 63.32 -55 64 C-55.66 64 -56.32 64 -57 64 C-57.103125 64.7425 -57.20625 65.485 -57.3125 66.25 C-58.04253504 69.17014018 -59.06789398 70.73187554 -61 73 C-62 70 -62 70 -60.5625 66.375 C-55.18770516 56.31116001 -47.06144473 48.94687454 -36.2109375 45.578125 C-31.66705442 44.38997183 -27.53199331 43.87915274 -22.82421875 43.90234375 C-21.66728516 43.90556641 -20.51035156 43.90878906 -19.31835938 43.91210938 C-18.12017578 43.92048828 -16.92199219 43.92886719 -15.6875 43.9375 C-13.8612207 43.94426758 -13.8612207 43.94426758 -11.99804688 43.95117188 C-8.99864774 43.96293422 -5.99934911 43.97937174 -3 44 C-3.01571045 42.95134766 -3.0314209 41.90269531 -3.04760742 40.82226562 C-3.10224455 36.90112097 -3.13647191 32.98000943 -3.16479492 29.05859375 C-3.17980505 27.36712978 -3.20021963 25.67570422 -3.22631836 23.984375 C-3.26304686 21.54156976 -3.27980411 19.0992827 -3.29296875 16.65625 C-3.30845261 15.91008423 -3.32393646 15.16391846 -3.33988953 14.3951416 C-3.34159263 8.98246177 -2.13211629 4.9773972 0 0 Z " fill="#85DFE0" transform="translate(150,71)"/>
<path d="M0 0 C-0.55708333 3.61711851 -1.72861017 4.94146207 -4.5625 7.1875 C-7.66856234 9.77311695 -10.36406912 12.43605658 -13 15.5 C-16.08310414 19.0639001 -19.33028665 22.08554995 -22.9296875 25.11328125 C-25.33455067 27.30488297 -27.42521977 29.6725615 -29.5625 32.125 C-35.04201062 38.30002312 -39.50374521 42.47982114 -48 43 C-48 42.01 -48 41.02 -48 40 C-42.25 38 -42.25 38 -40 38 C-40 35.36 -40 32.72 -40 30 C-39.2575 30.0825 -38.515 30.165 -37.75 30.25 C-34.21842973 29.92894816 -33.23369636 28.64734383 -31 26 C-30.34 26.33 -29.68 26.66 -29 27 C-29 26.34 -29 25.68 -29 25 C-28.01 25 -27.02 25 -26 25 C-26 24.34 -26 23.68 -26 23 C-25.34 23 -24.68 23 -24 23 C-24 22.34 -24 21.68 -24 21 C-23.34 21 -22.68 21 -22 21 C-21.67 20.01 -21.34 19.02 -21 18 C-20.34 18 -19.68 18 -19 18 C-18.67 16.35 -18.34 14.7 -18 13 C-17.01 13 -16.02 13 -15 13 C-15 12.34 -15 11.68 -15 11 C-14.01 11 -13.02 11 -12 11 C-11.67 10.01 -11.34 9.02 -11 8 C-10.01 8 -9.02 8 -8 8 C-8 7.01 -8 6.02 -8 5 C-7.34 5 -6.68 5 -6 5 C-6 4.34 -6 3.68 -6 3 C-3.89994105 0.39992701 -3.48266577 0 0 0 Z " fill="#4E4CB0" transform="translate(225,212)"/>
<path d="M0 0 C0.5775 0.37125 1.155 0.7425 1.75 1.125 C2.4925 1.41375 3.235 1.7025 4 2 C6.06669397 1.09166275 6.06669397 1.09166275 8 0 C8.99 0.33 9.98 0.66 11 1 C10.5153125 1.34329346 10.030625 1.68658691 9.53125 2.0402832 C2.99256367 6.90264526 -3.91615834 12.1262043 -5.7578125 20.40771484 C-6.41337027 28.29647012 -5.89626982 36.14729748 -5 44 C-5.99 44 -6.98 44 -8 44 C-8 35.75 -8 27.5 -8 19 C-12.80698472 23.88599919 -12.80698472 23.88599919 -17.6027832 28.78295898 C-18.20437256 29.38954346 -18.80596191 29.99612793 -19.42578125 30.62109375 C-20.03848877 31.2442749 -20.65119629 31.86745605 -21.2824707 32.50952148 C-23 34 -23 34 -26 35 C-25 32 -25 32 -22.0625 29.5625 C-19.38705307 27.32386073 -18.17591989 26.1749837 -17 23 C-16.34 23 -15.68 23 -15 23 C-15 22.34 -15 21.68 -15 21 C-14.34 20.67 -13.68 20.34 -13 20 C-13 19.34 -13 18.68 -13 18 C-12.34 18 -11.68 18 -11 18 C-10.855625 16.906875 -10.71125 15.81375 -10.5625 14.6875 C-10 11 -10 11 -9 8 C-6.69 8 -4.38 8 -2 8 C-1.855625 7.236875 -1.71125 6.47375 -1.5625 5.6875 C-1 3 -1 3 0 0 Z " fill="#C153BD" transform="translate(242,264)"/>
<path d="M0 0 C0 0.66 0 1.32 0 2 C-1.051875 2.391875 -2.10375 2.78375 -3.1875 3.1875 C-6.96961014 4.80732805 -9.11304441 7.04590591 -12 10 C-14.5580251 11.87994543 -17.16331137 13.67114457 -19.79296875 15.44921875 C-22.28300171 17.19885253 -24.18908649 19.19419693 -26.3125 21.375 C-28.7685172 23.77390052 -31.30111572 25.88465827 -34 28 C-34.66 28.66 -35.32 29.32 -36 30 C-37.13788924 30.84414841 -38.28507213 31.67581042 -39.4375 32.5 C-44.97644173 36.60065299 -49.96009799 41.31214997 -55 46 C-55.495 44.515 -55.495 44.515 -56 43 C-54.71034824 41.62437146 -53.37310707 40.29233607 -52 39 C-51.34 39 -50.68 39 -50 39 C-50 38.34 -50 37.68 -50 37 C-49.34 37 -48.68 37 -48 37 C-47.67 36.01 -47.34 35.02 -47 34 C-46.34 34 -45.68 34 -45 34 C-44.67 33.34 -44.34 32.68 -44 32 C-43.34 32 -42.68 32 -42 32 C-42 31.34 -42 30.68 -42 30 C-41.34 30 -40.68 30 -40 30 C-40 29.34 -40 28.68 -40 28 C-39.34 28 -38.68 28 -38 28 C-38 27.01 -38 26.02 -38 25 C-36.35443434 23.96564444 -34.6829392 22.97236487 -33 22 C-32.195625 21.195625 -31.39125 20.39125 -30.5625 19.5625 C-28 17 -28 17 -24.75 14.875 C-21.73996108 13.22935878 -21.73996108 13.22935878 -21 10 C-18.78515625 8.68359375 -18.78515625 8.68359375 -16.0625 7.4375 C-12.21922924 5.67562389 -12.21922924 5.67562389 -9 3 C-6.31795079 0.31795079 -3.73391546 0 0 0 Z " fill="#404EC7" transform="translate(282,145)"/>
<path d="M0 0 C5.1075534 3.04944644 9.00720847 7.53954219 10.5 13.375 C11.15113895 19.52593756 10.30290753 23.88597276 7.5 29.375 C7.17 29.375 6.84 29.375 6.5 29.375 C6.5 27.395 6.5 25.415 6.5 23.375 C7.16 23.375 7.82 23.375 8.5 23.375 C8.5 22.055 8.5 20.735 8.5 19.375 C6.52 20.365 6.52 20.365 4.5 21.375 C3.51 20.715 2.52 20.055 1.5 19.375 C2.82 19.045 4.14 18.715 5.5 18.375 C6.33241855 15.04532582 6.7757381 12.62233335 5.5 9.375 C4.84 9.045 4.18 8.715 3.5 8.375 C3.17 9.035 2.84 9.695 2.5 10.375 C1.51 10.705 0.52 11.035 -0.5 11.375 C-0.5 10.715 -0.5 10.055 -0.5 9.375 C-1.16 9.045 -1.82 8.715 -2.5 8.375 C-2.5 6.375 -2.5 4.375 -2.5 2.375 C-4.975 1.88 -4.975 1.88 -7.5 1.375 C-7.5 1.045 -7.5 0.715 -7.5 0.375 C-11.46 0.375 -15.42 0.375 -19.5 0.375 C-19.5 1.035 -19.5 1.695 -19.5 2.375 C-21.46875 3.8828125 -21.46875 3.8828125 -24 5.5 C-24.8353125 6.03882813 -25.670625 6.57765625 -26.53125 7.1328125 C-27.1809375 7.54273438 -27.830625 7.95265625 -28.5 8.375 C-29.16 8.045 -29.82 7.715 -30.5 7.375 C-29.27864002 6.24152945 -28.04750819 5.11858413 -26.8125 4 C-26.12800781 3.37351563 -25.44351562 2.74703125 -24.73828125 2.1015625 C-17.97764085 -3.11345156 -7.70373719 -3.52170843 0 0 Z " fill="#C236A5" transform="translate(290.5,189.625)"/>
<path d="M0 0 C0 16.17 0 32.34 0 49 C-0.99 49.495 -0.99 49.495 -2 50 C-2 34.49 -2 18.98 -2 3 C-6.29 3.66 -10.58 4.32 -15 5 C-17.46183038 5.13814652 -19.92893861 5.21868305 -22.39453125 5.1953125 C-23.61591797 5.18886719 -24.83730469 5.18242187 -26.09570312 5.17578125 C-27.93551758 5.15064453 -27.93551758 5.15064453 -29.8125 5.125 C-31.08931641 5.11597656 -32.36613281 5.10695313 -33.68164062 5.09765625 C-36.78796716 5.07438789 -39.89387572 5.04170155 -43 5 C-43 4.67 -43 4.34 -43 4 C-32.32089373 3.36850058 -21.7016389 2.82708303 -11 3 C-11 2.34 -11 1.68 -11 1 C-9.54182203 0.83197949 -8.0834516 0.66562857 -6.625 0.5 C-5.81289063 0.4071875 -5.00078125 0.314375 -4.1640625 0.21875 C-2 0 -2 0 0 0 Z " fill="#874AB0" transform="translate(307,326)"/>
<path d="M0 0 C2.04119788 1.61594832 4.04072937 3.2856382 6 5 C6 5.66 6 6.32 6 7 C6.66 7 7.32 7 8 7 C9.11375 8.175625 9.11375 8.175625 10.25 9.375 C15.81800717 14.68991593 22.65978487 14.50368652 30 15 C26.74090102 17.17273265 25.4303276 17.2914889 21.625 17.5 C17.65832453 17.71854961 14.63056494 18.36294526 11 20 C11 18.02 11 16.04 11 14 C8.69 13.67 6.38 13.34 4 13 C4 12.01 4 11.02 4 10 C4.66 10 5.32 10 6 10 C6 9.34 6 8.68 6 8 C2.7 8.33 -0.6 8.66 -4 9 C-5 6 -5 6 -5 2 C-3.35 1.34 -1.7 0.68 0 0 Z M-2 5 C-1.67 5.99 -1.34 6.98 -1 8 C-0.34 7.67 0.32 7.34 1 7 C1 6.34 1 5.68 1 5 C0.01 5 -0.98 5 -2 5 Z " fill="#DC7DDF" transform="translate(149,263)"/>
<path d="M0 0 C0.99 0 1.98 0 3 0 C3 10.56 3 21.12 3 32 C3.99 32 4.98 32 6 32 C5.814375 32.53625 5.62875 33.0725 5.4375 33.625 C4.87727445 36.66622442 5.26921671 39.01043198 6 42 C6.66 42.33 7.32 42.66 8 43 C7.67 44.98 7.34 46.96 7 49 C7.61875 49.309375 8.2375 49.61875 8.875 49.9375 C10.25 50.625 11.625 51.3125 13 52 C13 52.66 13 53.32 13 54 C15.31 54.66 17.62 55.32 20 56 C20 56.33 20 56.66 20 57 C23.63 57.33 27.26 57.66 31 58 C31 58.33 31 58.66 31 59 C17.55456299 59.92232419 17.55456299 59.92232419 11.64453125 55.48046875 C4.67910999 49.20993512 1.30222718 41.53280579 0.79467773 32.24121094 C0.75309107 30.73905157 0.71633779 29.23675312 0.68359375 27.734375 C0.66281265 26.94097717 0.64203156 26.14757935 0.62062073 25.33013916 C0.55540027 22.80351156 0.49636856 20.27678279 0.4375 17.75 C0.3942886 16.03384384 0.35067347 14.31769778 0.30664062 12.6015625 C0.19974717 8.40114454 0.09840271 4.20062511 0 0 Z " fill="#81A7DE" transform="translate(146,197)"/>
<path d="M0 0 C0.99386719 0.00902344 1.98773438 0.01804688 3.01171875 0.02734375 C4.15060547 0.04474609 4.15060547 0.04474609 5.3125 0.0625 C5.3125 0.3925 5.3125 0.7225 5.3125 1.0625 C0.52112412 2.6915678 -2.74382546 3.26827428 -7.6875 2.0625 C-7.6875 3.0525 -7.6875 4.0425 -7.6875 5.0625 C-8.3475 5.0625 -9.0075 5.0625 -9.6875 5.0625 C-9.3575 6.0525 -9.0275 7.0425 -8.6875 8.0625 C-10.6675 9.3825 -12.6475 10.7025 -14.6875 12.0625 C-14.3575 13.7125 -14.0275 15.3625 -13.6875 17.0625 C-14.6775 17.7225 -15.6675 18.3825 -16.6875 19.0625 C-16.6875 18.4025 -16.6875 17.7425 -16.6875 17.0625 C-18.3375 16.7325 -19.9875 16.4025 -21.6875 16.0625 C-22.0175 14.4125 -22.3475 12.7625 -22.6875 11.0625 C-21.29573368 10.09826974 -19.8988777 9.14138398 -18.5 8.1875 C-17.72269531 7.65382812 -16.94539063 7.12015625 -16.14453125 6.5703125 C-13.7198391 5.08234561 -11.3541501 4.03821922 -8.6875 3.0625 C-8.6875 2.4025 -8.6875 1.7425 -8.6875 1.0625 C-5.53819107 0.01273036 -3.29935544 -0.03881595 0 0 Z " fill="#C52AB1" transform="translate(279.6875,188.9375)"/>
<path d="M0 0 C1.32 0 2.64 0 4 0 C3.84992569 4.95245213 1.13930942 7.36965314 -2.11328125 10.7421875 C-4 12 -4 12 -6.23046875 11.6953125 C-6.81441406 11.46585938 -7.39835937 11.23640625 -8 11 C-8 11.99 -8 12.98 -8 14 C-8.66 14 -9.32 14 -10 14 C-10 14.66 -10 15.32 -10 16 C-11.97290587 18.34869747 -13.00306862 19.00102287 -16 20 C-16.66 20.99 -17.32 21.98 -18 23 C-18.66 21.35 -19.32 19.7 -20 18 C-19.34 18 -18.68 18 -18 18 C-18.33 17.01 -18.66 16.02 -19 15 C-16.36 15 -13.72 15 -11 15 C-11.20625 14.4225 -11.4125 13.845 -11.625 13.25 C-12 11 -12 11 -11.5 8.875 C-9.2370059 6.04625738 -6.42298757 5.87130593 -3 5 C-2.67 4.34 -2.34 3.68 -2 3 C-1.34 3 -0.68 3 0 3 C0 2.01 0 1.02 0 0 Z " fill="#B522A5" transform="translate(284,226)"/>
<path d="M0 0 C0.33 0 0.66 0 1 0 C1.125 7.625 1.125 7.625 0 11 C-0.15412828 13.87418996 -0.25754741 16.72915664 -0.31640625 19.60546875 C-0.33505737 20.34945923 -0.3537085 21.09344971 -0.3729248 21.85998535 C-0.44115587 24.63570427 -0.50134711 27.41161612 -0.5625 30.1875 C-0.706875 36.395625 -0.85125 42.60375 -1 49 C17.15 49 35.3 49 54 49 C54 49.33 54 49.66 54 50 C35.52 50 17.04 50 -2 50 C-3.31847898 46.04456306 -3.05123419 42.31848177 -2.94921875 38.203125 C-2.9303511 37.33612976 -2.91148346 36.46913452 -2.89204407 35.5758667 C-2.85016529 33.73996531 -2.80542819 31.90412724 -2.75805664 30.06835938 C-2.68812248 27.27486463 -2.63359735 24.48135128 -2.58007812 21.6875 C-2.53740306 19.90101885 -2.49381246 18.11455929 -2.44921875 16.328125 C-2.43453049 15.49871399 -2.41984222 14.66930298 -2.40470886 13.8147583 C-2.26032128 8.87240306 -1.56450974 4.6954942 0 0 Z " fill="#B2E9F1" transform="translate(87,143)"/>
<path d="M0 0 C0.99 0 1.98 0 3 0 C3 9.9 3 19.8 3 30 C2.01 30 1.02 30 0 30 C0 21.75 0 13.5 0 5 C-4.80698472 9.88599919 -4.80698472 9.88599919 -9.6027832 14.78295898 C-10.50516724 15.69283569 -10.50516724 15.69283569 -11.42578125 16.62109375 C-12.03848877 17.2442749 -12.65119629 17.86745605 -13.2824707 18.50952148 C-15 20 -15 20 -18 21 C-17 18 -17 18 -14.0625 15.5625 C-11.38705307 13.32386073 -10.17591989 12.1749837 -9 9 C-8.34 9 -7.68 9 -7 9 C-7 8.34 -7 7.68 -7 7 C-6.34 6.67 -5.68 6.34 -5 6 C-5 5.34 -5 4.68 -5 4 C-4.34 4 -3.68 4 -3 4 C-2.2884375 3.01 -2.2884375 3.01 -1.5625 2 C-1.046875 1.34 -0.53125 0.68 0 0 Z " fill="#AA4CB8" transform="translate(234,278)"/>
<path d="M0 0 C3.7758544 0.52442422 6.22372155 1.32654667 9 4 C9 4.99 9 5.98 9 7 C10.32 7 11.64 7 13 7 C13 7.99 13 8.98 13 10 C15.97 10.495 15.97 10.495 19 11 C19 11.66 19 12.32 19 13 C20.32 13 21.64 13 23 13 C23 13.99 23 14.98 23 16 C24.32 16.66 25.64 17.32 27 18 C25.3515625 18.7109375 25.3515625 18.7109375 23 19 C15.32620587 15.15185104 3.94402792 7.88805583 0 0 Z " fill="#9063C4" transform="translate(170,373)"/>
<path d="M0 0 C1.01513672 -0.01836914 1.01513672 -0.01836914 2.05078125 -0.03710938 C5.76357044 -0.04809396 7.32983076 0.07405384 10.5 2.1875 C6.21 1.8575 1.92 1.5275 -2.5 1.1875 C-2.5 1.8475 -2.5 2.5075 -2.5 3.1875 C-3.12648438 3.21328125 -3.75296875 3.2390625 -4.3984375 3.265625 C-5.21570313 3.32234375 -6.03296875 3.3790625 -6.875 3.4375 C-7.68710937 3.48390625 -8.49921875 3.5303125 -9.3359375 3.578125 C-11.66782378 3.97334801 -11.66782378 3.97334801 -12.71484375 6.125 C-12.97394531 6.805625 -13.23304688 7.48625 -13.5 8.1875 C-14.6875 9.9375 -14.6875 9.9375 -16.5 11.1875 C-20.1875 11.375 -20.1875 11.375 -23.5 11.1875 C-17.50394189 2.94292009 -10.09856019 0.00961768 0 0 Z " fill="#EE7BA1" transform="translate(347.5,36.8125)"/>
<path d="M0 0 C24.75 0 49.5 0 75 0 C74.67 1.65 74.34 3.3 74 5 C73.01 5.66 72.02 6.32 71 7 C71 5.35 71 3.7 71 2 C47.57 1.67 24.14 1.34 0 1 C0 0.67 0 0.34 0 0 Z " fill="#416EBD" transform="translate(237,116)"/>
<path d="M0 0 C2.31 0 4.62 0 7 0 C7.0825 1.11375 7.165 2.2275 7.25 3.375 C7.56645628 7.00907626 7.56645628 7.00907626 9.8125 8.25 C10.534375 8.4975 11.25625 8.745 12 9 C15.15688503 11.04269032 16.41902519 12.64042852 18 16 C19.3050581 17.68889872 20.63360658 19.3603279 22 21 C17.21802844 21 14.91283771 17.6079538 11.5625 14.4375 C10.89412109 13.82841797 10.22574219 13.21933594 9.53710938 12.59179688 C5.39460493 8.71204792 2.5527813 5.07291834 0 0 Z " fill="#D673DB" transform="translate(96,288)"/>
<path d="M0 0 C0.66 0.33 1.32 0.66 2 1 C-5.55550438 8.72809205 -5.55550438 8.72809205 -9.25 11.75 C-11.99170802 13.91708023 -11.99170802 13.91708023 -14.25 16.25 C-16 18 -16 18 -18 19 C-12.06 19.99 -12.06 19.99 -6 21 C-6 21.33 -6 21.66 -6 22 C-9.96 22 -13.92 22 -18 22 C-18.33 21.34 -18.66 20.68 -19 20 C-19.99 19.67 -20.98 19.34 -22 19 C-22 18.34 -22 17.68 -22 17 C-20.26059253 15.55945979 -18.45528806 14.19815535 -16.625 12.875 C-15.52762531 12.07300912 -14.43128929 11.26959529 -13.3359375 10.46484375 C-12.7800293 10.05733887 -12.22412109 9.64983398 -11.65136719 9.22998047 C-7.67730573 6.26999797 -3.8462899 3.12298317 0 0 Z " fill="#3C45B8" transform="translate(183,233)"/>
<path d="M0 0 C0.99 1.32 1.98 2.64 3 4 C2.02079402 6.44801496 1.42031559 7.74781064 -0.875 9.125 C-1.57625 9.41375 -2.2775 9.7025 -3 10 C-5.78607503 11.31548697 -8.270147 12.8279007 -10.8125 14.5625 C-14.62011717 16.99137399 -17.51976087 17.71998505 -22 18 C-15.475 11.1125 -15.475 11.1125 -10.25 10.875 C-9.5075 10.91625 -8.765 10.9575 -8 11 C-7.67 10.01 -7.34 9.02 -7 8 C-3.55555556 5 -3.55555556 5 -1 5 C-0.67 3.35 -0.34 1.7 0 0 Z " fill="#35C1D5" transform="translate(165,126)"/>
<path d="M0 0 C-2.5 1.5 -2.5 1.5 -5 3 C-6.299375 3.8353125 -6.299375 3.8353125 -7.625 4.6875 C-10 6 -10 6 -13 6 C-13 6.99 -13 7.98 -13 9 C-12.34 9.33 -11.68 9.66 -11 10 C-11.66 10 -12.32 10 -13 10 C-13.33 10.66 -13.66 11.32 -14 12 C-14.53625 11.773125 -15.0725 11.54625 -15.625 11.3125 C-19.06081901 10.86041855 -21.05766694 12.32821985 -24 14 C-20.79592954 6.78306459 -14.03434783 2.9819518 -7 0 C-3.86650268 -1.04449911 -3.01031744 -0.93423645 0 0 Z " fill="#62D9DC" transform="translate(179,50)"/>
<path d="M0 0 C1.10083923 0.00015106 2.20167847 0.00030212 3.33587646 0.00045776 C5.10949554 0.01594162 5.10949554 0.01594162 6.91894531 0.03173828 C8.74162933 0.03598312 8.74162933 0.03598312 10.60113525 0.04031372 C14.48321366 0.05151124 18.3650616 0.07661544 22.24707031 0.10205078 C24.8785774 0.11208112 27.5100881 0.12120687 30.14160156 0.12939453 C36.59350315 0.15144921 43.04527027 0.18492274 49.49707031 0.22705078 C49.49707031 0.55705078 49.49707031 0.88705078 49.49707031 1.22705078 C48.88985641 1.23291702 48.28264252 1.23878326 47.6570282 1.24482727 C41.34664456 1.30867806 35.03677487 1.39307581 28.72680664 1.48950195 C26.3707557 1.52279098 24.01462425 1.55081039 21.65844727 1.57348633 C18.27487825 1.60695881 14.89204977 1.6592717 11.50878906 1.71533203 C9.92429207 1.72491692 9.92429207 1.72491692 8.30778503 1.73469543 C7.32699478 1.75448959 6.34620453 1.77428375 5.33569336 1.79467773 C4.47187546 1.80578079 3.60805756 1.81688385 2.71806335 1.82832336 C0.06522275 2.30457892 -0.82894867 3.16812985 -2.50292969 5.22705078 C-3.49292969 4.56705078 -4.48292969 3.90705078 -5.50292969 3.22705078 C-6.49292969 4.21705078 -7.48292969 5.20705078 -8.50292969 6.22705078 C-8.83292969 4.90705078 -9.16292969 3.58705078 -9.50292969 2.22705078 C-6.22481107 0.27568039 -3.79055332 -0.01738786 0 0 Z " fill="#29C3D2" transform="translate(184.5029296875,48.77294921875)"/>
<path d="M0 0 C0.33 0 0.66 0 1 0 C1 8.58 1 17.16 1 26 C2.98 25.34 4.96 24.68 7 24 C7 27.44360632 6.20408468 28.74795392 4.5 31.6875 C4.0359375 32.49574219 3.571875 33.30398437 3.09375 34.13671875 C2.7328125 34.75160156 2.371875 35.36648437 2 36 C2.66 36.33 3.32 36.66 4 37 C2.68 37 1.36 37 0 37 C0 24.79 0 12.58 0 0 Z " fill="#32C1CB" transform="translate(86,154)"/>
<path d="M0 0 C0.33 0.99 0.66 1.98 1 3 C0.01 3.66 -0.98 4.32 -2 5 C-1.67 6.32 -1.34 7.64 -1 9 C-4.75 12 -4.75 12 -7 12 C-7.33 12.66 -7.66 13.32 -8 14 C-8.66 14 -9.32 14 -10 14 C-10.66 15.32 -11.32 16.64 -12 18 C-13.65 18 -15.3 18 -17 18 C-11.72898586 11.58930713 -5.90871848 5.81409488 0 0 Z " fill="#CE61CB" transform="translate(234,223)"/>
<path d="M0 0 C0.99 0 1.98 0 3 0 C1.64763423 2.93879484 0.10057341 5.29232911 -2 7.75 C-2.515625 8.36359375 -3.03125 8.9771875 -3.5625 9.609375 C-5 11 -5 11 -7 11 C-7.268125 11.639375 -7.53625 12.27875 -7.8125 12.9375 C-9 15 -9 15 -12 16 C-12 15.01 -12 14.02 -12 13 C-12.66 12.67 -13.32 12.34 -14 12 C-9.25 9 -9.25 9 -7 9 C-7.33 6.69 -7.66 4.38 -8 2 C-6 2 -6 2 -4.375 3.5 C-3.92125 3.995 -3.4675 4.49 -3 5 C-2.690625 4.360625 -2.38125 3.72125 -2.0625 3.0625 C-1 1 -1 1 0 0 Z " fill="#4F4DAD" transform="translate(242,192)"/>
<path d="M0 0 C-0.375 1.9375 -0.375 1.9375 -1 4 C-1.99 4.495 -1.99 4.495 -3 5 C-2.67 6.65 -2.34 8.3 -2 10 C-3.98 10.66 -5.96 11.32 -8 12 C-9.01397631 8.77371174 -9.20240769 7.43517654 -7.75 4.3125 C-5.38772728 1.19092533 -3.97425481 0 0 0 Z M-10 12 C-9.34 12.33 -8.68 12.66 -8 13 C-7.77963136 16.85645121 -8.39644899 19.49223216 -10 23 C-10.33 23 -10.66 23 -11 23 C-11.125 15.375 -11.125 15.375 -10 12 Z " fill="#3BD2D9" transform="translate(160,62)"/>
<path d="M0 0 C0.33 0.99 0.66 1.98 1 3 C0.01 3.66 -0.98 4.32 -2 5 C-1.34 5.33 -0.68 5.66 0 6 C0 7.98 0 9.96 0 12 C-0.66 12 -1.32 12 -2 12 C-2 11.34 -2 10.68 -2 10 C-2.99 10 -3.98 10 -5 10 C-5.33 10.66 -5.66 11.32 -6 12 C-7.95517927 13.95517927 -10.5117534 14.88282806 -13 16 C-13.66 15.67 -14.32 15.34 -15 15 C-10.05 10.05 -5.1 5.1 0 0 Z M1 4 C1.66 4 2.32 4 3 4 C2.67 4.66 2.34 5.32 2 6 C1.67 5.34 1.34 4.68 1 4 Z " fill="#CE5BCF" transform="translate(216,241)"/>
<path d="M0 0 C0.66 0.33 1.32 0.66 2 1 C0.71937515 2.7074998 -0.61767557 4.37373596 -2 6 C-2.66 6 -3.32 6 -4 6 C-4.66 7.98 -5.32 9.96 -6 12 C-6.99 12 -7.98 12 -9 12 C-9 12.66 -9 13.32 -9 14 C-9.66 14 -10.32 14 -11 14 C-11.103125 14.7425 -11.20625 15.485 -11.3125 16.25 C-12.04253504 19.17014018 -13.06789398 20.73187554 -15 23 C-16 20 -16 20 -14.5625 16.375 C-11.10450449 9.85661822 -6.01097178 4.25329923 0 0 Z " fill="#75DDD7" transform="translate(104,121)"/>
<path d="M0 0 C0.99 0.33 1.98 0.66 3 1 C3 1.99 3 2.98 3 4 C4.32 4.33 5.64 4.66 7 5 C7 5.99 7 6.98 7 8 C7.99 8 8.98 8 10 8 C10.66 9.32 11.32 10.64 12 12 C11.01 12.99 10.02 13.98 9 15 C6 10.25 6 10.25 6 8 C3.36 8 0.72 8 -2 8 C-2.20086443 4.28400809 -2.1519437 3.22791555 0 0 Z " fill="#E05AE8" transform="translate(130,248)"/>
<path d="M0 0 C0 6.27 0 12.54 0 19 C-0.33 19 -0.66 19 -1 19 C-1.33 14.05 -1.66 9.1 -2 4 C-2.99 5.98 -3.98 7.96 -5 10 C-7.5 11.1875 -7.5 11.1875 -10 12 C-11.77277259 13.52007842 -11.77277259 13.52007842 -13 15 C-13.66 14.67 -14.32 14.34 -15 14 C-12.69152056 11.66265901 -10.37756659 9.33081534 -8.0625 7 C-7.40314453 6.33226562 -6.74378906 5.66453125 -6.06445312 4.9765625 C-5.43603516 4.34492188 -4.80761719 3.71328125 -4.16015625 3.0625 C-3.57886963 2.47597656 -2.99758301 1.88945312 -2.39868164 1.28515625 C-1 0 -1 0 0 0 Z " fill="#5D228B" transform="translate(235,282)"/>
<path d="M0 0 C0.99 1.32 1.98 2.64 3 4 C0 6 0 6 -2 7 C-2 8.32 -2 9.64 -2 11 C-2.7425 10.938125 -3.485 10.87625 -4.25 10.8125 C-7.45383006 11.03094296 -8.64031256 11.90250005 -11 14 C-11.66 13.67 -12.32 13.34 -13 13 C-8.71 8.71 -4.42 4.42 0 0 Z " fill="#CF5ACC" transform="translate(200,257)"/>
<path d="M0 0 C2.84740905 2.84740905 3.16876253 5.37768083 3.25 9.25 C3.21992927 13.84330444 2.07575166 16.93498634 0 21 C-0.33 21 -0.66 21 -1 21 C-1 19.02 -1 17.04 -1 15 C-0.34 15 0.32 15 1 15 C1 13.68 1 12.36 1 11 C-0.98 11.99 -0.98 11.99 -3 13 C-3.99 12.34 -4.98 11.68 -6 11 C-4.68 10.67 -3.36 10.34 -2 10 C-1.67 8.68 -1.34 7.36 -1 6 C-0.34 6 0.32 6 1 6 C0.67 4.02 0.34 2.04 0 0 Z " fill="#CB3AA8" transform="translate(298,198)"/>
<path d="M0 0 C1.98 0.99 3.96 1.98 6 3 C6 3.99 6 4.98 6 6 C6.99 6 7.98 6 9 6 C9.28875 7.0725 9.5775 8.145 9.875 9.25 C10.73600459 12.1200153 11.62436288 14.38744547 13 17 C7.83529257 12.7782869 3.7210833 8.58162496 0 3 C0 2.01 0 1.02 0 0 Z " fill="#E793E5" transform="translate(86,276)"/>
<path d="M0 0 C2.875 1.0625 2.875 1.0625 6 3 C7.25 6.625 7.25 6.625 8 10 C8.66 10.33 9.32 10.66 10 11 C10 12.65 10 14.3 10 16 C5.45924219 11.85989729 2.28157862 7.17609824 -1 2 C-0.67 1.34 -0.34 0.68 0 0 Z " fill="#8A5CC5" transform="translate(160,357)"/>
<path d="M0 0 C0.66 0 1.32 0 2 0 C1.67 0.99 1.34 1.98 1 3 C0.34 3 -0.32 3 -1 3 C-1 3.66 -1 4.32 -1 5 C-8.17015118 8.15486652 -14.22282877 10.33808853 -22.1875 10.25 C-23.25387695 10.26160156 -23.25387695 10.26160156 -24.34179688 10.2734375 C-28.10012031 10.25929517 -29.7989956 10.13400293 -33 8 C-31.81664062 8.04640625 -30.63328125 8.0928125 -29.4140625 8.140625 C-20.37460015 8.38733835 -13.17702253 8.28394679 -5 4 C-3.33922921 3.3187786 -1.67382056 2.64849592 0 2 C0 1.34 0 0.68 0 0 Z " fill="#7B28A7" transform="translate(184,330)"/>
<path d="M0 0 C0.99 0.33 1.98 0.66 3 1 C-0.99068736 8.14123002 -4.79201854 12.32534278 -12 16 C-12 13 -12 13 -9.6875 10.3125 C-7 8 -7 8 -4 8 C-3.8453125 7.13375 -3.8453125 7.13375 -3.6875 6.25 C-2.90207202 3.67950842 -1.69495803 2.06342716 0 0 Z " fill="#4559CB" transform="translate(218,196)"/>
<path d="M0 0 C0.33 0 0.66 0 1 0 C0.67 2.64 0.34 5.28 0 8 C-0.66 8 -1.32 8 -2 8 C-1.896875 8.9075 -1.79375 9.815 -1.6875 10.75 C-2 14 -2 14 -4.5 16.375 C-5.325 16.91125 -6.15 17.4475 -7 18 C-7.33 16.02 -7.66 14.04 -8 12 C-7.34 11.67 -6.68 11.34 -6 11 C-5.690625 10.195625 -5.38125 9.39125 -5.0625 8.5625 C-4 6 -4 6 -1 4 C-0.27617533 1.94074861 -0.27617533 1.94074861 0 0 Z " fill="#B5249B" transform="translate(299,205)"/>
<path d="M0 0 C2.86688248 0.09096556 5.70300515 0.23767988 8.5625 0.4375 C9.36880859 0.48970703 10.17511719 0.54191406 11.00585938 0.59570312 C13.00421738 0.72577376 15.00215386 0.86229056 17 1 C13.74090102 3.17273265 12.4303276 3.2914889 8.625 3.5 C4.65832453 3.71854961 1.63056494 4.36294526 -2 6 C-1.125 1.125 -1.125 1.125 0 0 Z " fill="#D461D5" transform="translate(162,277)"/>
<path d="M0 0 C0.99386719 0.00902344 1.98773438 0.01804688 3.01171875 0.02734375 C4.15060547 0.04474609 4.15060547 0.04474609 5.3125 0.0625 C5.3125 0.3925 5.3125 0.7225 5.3125 1.0625 C0.52112412 2.6915678 -2.74382546 3.26827428 -7.6875 2.0625 C-7.6875 3.0525 -7.6875 4.0425 -7.6875 5.0625 C-8.3475 5.0625 -9.0075 5.0625 -9.6875 5.0625 C-9.3575 6.0525 -9.0275 7.0425 -8.6875 8.0625 C-10.3375 8.7225 -11.9875 9.3825 -13.6875 10.0625 C-13.6875 9.0725 -13.6875 8.0825 -13.6875 7.0625 C-14.3475 6.7325 -15.0075 6.4025 -15.6875 6.0625 C-10.9375 3.0625 -10.9375 3.0625 -8.6875 3.0625 C-8.6875 2.4025 -8.6875 1.7425 -8.6875 1.0625 C-5.53819107 0.01273036 -3.29935544 -0.03881595 0 0 Z " fill="#C126A6" transform="translate(279.6875,188.9375)"/>
<path d="M0 0 C-2.91765 1.9451 -4.62537285 2.45276317 -8 3 C-8 3.66 -8 4.32 -8 5 C-10.31 5.33 -12.62 5.66 -15 6 C-15 4.68 -15 3.36 -15 2 C-14.01 2 -13.02 2 -12 2 C-12 1.34 -12 0.68 -12 0 C-7.74433453 -1.16063604 -4.3164922 -0.76173392 0 0 Z " fill="#E161E9" transform="translate(116,242)"/>
<path d="M0 0 C0 0.66 0 1.32 0 2 C-1.42892578 2.68835938 -1.42892578 2.68835938 -2.88671875 3.390625 C-4.15380572 4.01008974 -5.4207239 4.62989981 -6.6875 5.25 C-7.31333984 5.55035156 -7.93917969 5.85070312 -8.58398438 6.16015625 C-11.65928804 7.67365648 -14.10518005 9.08722972 -16.76953125 11.296875 C-17.50558594 11.85890625 -18.24164063 12.4209375 -19 13 C-19.99 12.67 -20.98 12.34 -22 12 C-20.60648806 9.21297611 -18.85529103 8.8142546 -16.0625 7.5 C-12.2248649 5.69388758 -12.2248649 5.69388758 -9 3 C-6.31795079 0.31795079 -3.73391546 0 0 0 Z " fill="#4861DB" transform="translate(282,145)"/>
<path d="M0 0 C1.12664062 -0.00515625 2.25328125 -0.0103125 3.4140625 -0.015625 C6.375 0.25 6.375 0.25 9.375 2.25 C3.435 2.25 -2.505 2.25 -8.625 2.25 C-8.625 2.91 -8.625 3.57 -8.625 4.25 C-10.59375 5.7578125 -10.59375 5.7578125 -13.125 7.375 C-13.9603125 7.91382813 -14.795625 8.45265625 -15.65625 9.0078125 C-16.3059375 9.41773438 -16.955625 9.82765625 -17.625 10.25 C-18.285 9.92 -18.945 9.59 -19.625 9.25 C-18.40364002 8.11652945 -17.17250819 6.99358413 -15.9375 5.875 C-15.25300781 5.24851563 -14.56851562 4.62203125 -13.86328125 3.9765625 C-9.39282654 0.52814892 -5.57808308 -0.02564636 0 0 Z " fill="#E18ED1" transform="translate(279.625,187.75)"/>
<path d="M0 0 C0.66 0.33 1.32 0.66 2 1 C-2.60136502 6.53601728 -7.46398272 11.39863498 -13 16 C-13.33 15.01 -13.66 14.02 -14 13 C-12.71034824 11.62437146 -11.37310707 10.29233607 -10 9 C-9.34 9 -8.68 9 -8 9 C-8 8.34 -8 7.68 -8 7 C-7.34 7 -6.68 7 -6 7 C-5.67 6.01 -5.34 5.02 -5 4 C-4.34 4 -3.68 4 -3 4 C-2.67 3.34 -2.34 2.68 -2 2 C-1.34 2 -0.68 2 0 2 C0 1.34 0 0.68 0 0 Z " fill="#425ACC" transform="translate(240,175)"/>
<path d="M0 0 C0.66 0.33 1.32 0.66 2 1 C2.625 4.0625 2.625 4.0625 3 7 C0.64561267 8.42944945 -0.48032433 9.08661261 -3.25 8.625 C-3.8275 8.41875 -4.405 8.2125 -5 8 C-5 6.02 -5 4.04 -5 2 C-2.625 0.9375 -2.625 0.9375 0 0 Z M-2 5 C-1.67 5.99 -1.34 6.98 -1 8 C-0.34 7.67 0.32 7.34 1 7 C1 6.34 1 5.68 1 5 C0.01 5 -0.98 5 -2 5 Z " fill="#DC62E0" transform="translate(149,263)"/>
<path d="M0 0 C0 3 0 3 -1.6875 5.0859375 C-11.74586004 15.04235471 -11.74586004 15.04235471 -17 17 C-19.23046875 16.6171875 -19.23046875 16.6171875 -21 16 C-19.35 15.67 -17.7 15.34 -16 15 C-16 14.34 -16 13.68 -16 13 C-14.20703125 11.66796875 -14.20703125 11.66796875 -11.8125 10.1875 C-8.01891174 7.74791258 -5.03896381 5.31523324 -2 2 C-1.34 1.34 -0.68 0.68 0 0 Z " fill="#485FDD" transform="translate(303,128)"/>
<path d="M0 0 C1.4540625 0.0309375 1.4540625 0.0309375 2.9375 0.0625 C2.9375 2.3725 2.9375 4.6825 2.9375 7.0625 C1.9475 7.5575 1.9475 7.5575 0.9375 8.0625 C0.9375 7.4025 0.9375 6.7425 0.9375 6.0625 C-0.7125 6.3925 -2.3625 6.7225 -4.0625 7.0625 C-4.10504356 5.06295254 -4.10330783 3.06208364 -4.0625 1.0625 C-3.0625 0.0625 -3.0625 0.0625 0 0 Z " fill="#BE34B1" transform="translate(236.0625,271.9375)"/>
<path d="M0 0 C-1.1875 2.9375 -1.1875 2.9375 -3 6 C-5.6875 6.875 -5.6875 6.875 -8 7 C-8.33 4.69 -8.66 2.38 -9 0 C-5.62182575 -0.84454356 -3.32534757 -1.10844919 0 0 Z " fill="#B833AD" transform="translate(258,257)"/>
<path d="M0 0 C2.475 0.99 2.475 0.99 5 2 C5 2.66 5 3.32 5 4 C7.31 4.66 9.62 5.32 12 6 C12 6.33 12 6.66 12 7 C15.63 7.33 19.26 7.66 23 8 C23 8.33 23 8.66 23 9 C15.60232594 9.5074624 9.73319162 9.8170323 3.48828125 5.484375 C1.802912 3.80342929 0.94248691 2.17282698 0 0 Z " fill="#747FC8" transform="translate(154,247)"/>
<path d="M0 0 C2.875 2 2.875 2 5 4 C4.67 4.66 4.34 5.32 4 6 C2.68 6 1.36 6 0 6 C0 5.34 0 4.68 0 4 C-0.7425 4.061875 -1.485 4.12375 -2.25 4.1875 C-5.45383006 3.96905704 -6.64031256 3.09749995 -9 1 C-5.66660588 -0.11113137 -3.49519344 -0.34951934 0 0 Z " fill="#6044C6" transform="translate(326,116)"/>
<path d="M0 0 C3 3.625 3 3.625 3 7 C1.68 7 0.36 7 -1 7 C-1.99 8.485 -1.99 8.485 -3 10 C-3.66 10 -4.32 10 -5 10 C-5 9.34 -5 8.68 -5 8 C-5.66 7.67 -6.32 7.34 -7 7 C-4.69 4.69 -2.38 2.38 0 0 Z " fill="#CA4FC1" transform="translate(256,201)"/>
<path d="M0 0 C0.33 1.32 0.66 2.64 1 4 C0.113125 4.53625 -0.77375 5.0725 -1.6875 5.625 C-4.1565906 7.24771203 -5.91449068 8.93780617 -7.75 11.25 C-8.4925 12.1575 -9.235 13.065 -10 14 C-10.66 14 -11.32 14 -12 14 C-11.35330586 12.65686601 -10.68096422 11.32608822 -10 10 C-9.38125 8.7625 -9.38125 8.7625 -8.75 7.5 C-6.60226603 4.43180862 -4.17591646 2.93316654 -1 1 C-0.67 0.67 -0.34 0.34 0 0 Z " fill="#3D4BBE" transform="translate(230,187)"/>
<path d="M0 0 C0 0.66 0 1.32 0 2 C-1.43359375 3.26171875 -1.43359375 3.26171875 -3.4375 4.6875 C-6.67067943 7.02996453 -9.85360484 9.41672296 -13 11.875 C-14.1446875 12.76832031 -14.1446875 12.76832031 -15.3125 13.6796875 C-16.1478125 14.33324219 -16.1478125 14.33324219 -17 15 C-17.33 14.34 -17.66 13.68 -18 13 C-16.39873111 10.47168071 -15.45069821 9.17790719 -12.625 8.0625 C-9.26560744 6.70274587 -7.47689909 4.6072622 -5 2 C-2 0 -2 0 0 0 Z " fill="#4C67D7" transform="translate(194,224)"/>
<path d="M0 0 C1.32 0 2.64 0 4 0 C3.84518205 2.70931419 3.51827919 4.46584039 1.59765625 6.4453125 C0.10228292 7.67679642 -1.4462924 8.8429837 -3 10 C-3 8.02 -3 6.04 -3 4 C-2.01 3.67 -1.02 3.34 0 3 C0 2.01 0 1.02 0 0 Z " fill="#BA23A6" transform="translate(284,226)"/>
<path d="M0 0 C0.99 1.32 1.98 2.64 3 4 C2.34 4 1.68 4 1 4 C1 4.66 1 5.32 1 6 C2.423125 5.9690625 2.423125 5.9690625 3.875 5.9375 C7 6 7 6 9 7 C9 7.66 9 8.32 9 9 C7.20741442 8.91306859 5.41584856 8.80489496 3.625 8.6875 C2.62726563 8.62949219 1.62953125 8.57148437 0.6015625 8.51171875 C-0.25695312 8.34285156 -1.11546875 8.17398438 -2 8 C-2.66 7.01 -3.32 6.02 -4 5 C-3.01 5 -2.02 5 -1 5 C-0.67 3.35 -0.34 1.7 0 0 Z " fill="#2EC5D5" transform="translate(149,112)"/>
<path d="M0 0 C0.33 0.66 0.66 1.32 1 2 C1.66 2 2.32 2 3 2 C3 1.34 3 0.68 3 0 C3.99 0.33 4.98 0.66 6 1 C5.8125 2.8125 5.8125 2.8125 5 5 C2.4375 6.75 2.4375 6.75 0 8 C-0.66 7.34 -1.32 6.68 -2 6 C-1.44444444 1.44444444 -1.44444444 1.44444444 0 0 Z " fill="#B51FA8" transform="translate(258,248)"/>
<path d="M0 0 C0.99 0.33 1.98 0.66 3 1 C1.10934188 2.4654862 -0.78701997 3.92234703 -2.6875 5.375 C-3.48317383 5.99375 -3.48317383 5.99375 -4.29492188 6.625 C-7.40498266 8.99093582 -10.29378434 10.74855056 -14 12 C-13.09515208 10.84481082 -12.1755794 9.70114594 -11.25 8.5625 C-10.73953125 7.92441406 -10.2290625 7.28632813 -9.703125 6.62890625 C-7.78169758 4.79121076 -6.54364341 4.55041023 -4 4 C-3.67 3.34 -3.34 2.68 -3 2 C-2.01 1.34 -1.02 0.68 0 0 Z " fill="#4A67D5" transform="translate(173,239)"/>
<path d="M0 0 C0.66 0 1.32 0 2 0 C0.59928507 5.29158974 -2.85487245 7.77478044 -7 11 C-7.375 8.25 -7.375 8.25 -7 5 C-4.0625 2.6875 -4.0625 2.6875 -1 1 C-0.67 0.67 -0.34 0.34 0 0 Z " fill="#C866B9" transform="translate(295,219)"/>
<path d="M0 0 C0.99 0.33 1.98 0.66 3 1 C4.55266653 1.1464714 6.10995662 1.24694074 7.66796875 1.31640625 C9.00698242 1.37924805 9.00698242 1.37924805 10.37304688 1.44335938 C11.76620117 1.50233398 11.76620117 1.50233398 13.1875 1.5625 C14.12787109 1.60568359 15.06824219 1.64886719 16.03710938 1.69335938 C18.35792854 1.79938665 20.67885325 1.90145029 23 2 C23 2.33 23 2.66 23 3 C13.76 3 4.52 3 -5 3 C-2 1 -2 1 0 0 Z " fill="#7127AB" transform="translate(246,402)"/>
<path d="M0 0 C0.33 0 0.66 0 1 0 C1.33 2.97 1.66 5.94 2 9 C2.66 9 3.32 9 4 9 C4 9.66 4 10.32 4 11 C4.66 11.33 5.32 11.66 6 12 C4.625 13.5 4.625 13.5 3 15 C2.34 15 1.68 15 1 15 C-0.44207941 12.11584117 -0.09394887 9.58278472 -0.0625 6.375 C-0.05347656 5.18648438 -0.04445313 3.99796875 -0.03515625 2.7734375 C-0.02355469 1.85820312 -0.01195313 0.94296875 0 0 Z " fill="#DA66DE" transform="translate(86,263)"/>
<path d="M0 0 C1.32 0 2.64 0 4 0 C3.25 5.75 3.25 5.75 1 8 C0.01 8 -0.98 8 -2 8 C-2 7.34 -2 6.68 -2 6 C-2.66 5.67 -3.32 5.34 -4 5 C-3.01 4.34 -2.02 3.68 -1 3 C-0.67 2.01 -0.34 1.02 0 0 Z " fill="#C42FBE" transform="translate(235,223)"/>
<path d="M0 0 C0.99 0.33 1.98 0.66 3 1 C1.5484451 2.67257355 0.08855591 4.33791758 -1.375 6 C-2.18710938 6.928125 -2.99921875 7.85625 -3.8359375 8.8125 C-4.55007812 9.534375 -5.26421875 10.25625 -6 11 C-6.66 11 -7.32 11 -8 11 C-7.49396008 8.83125748 -7.00016187 7.00032373 -6 5 C-5.34 5 -4.68 5 -4 5 C-4 4.34 -4 3.68 -4 3 C-2.68 2.67 -1.36 2.34 0 2 C0 1.34 0 0.68 0 0 Z " fill="#6162B3" transform="translate(197,238)"/>
<path d="M0 0 C0 3.93169105 -1.39419615 5.16427228 -4 8 C-4.66 8 -5.32 8 -6 8 C-5.67 7.01 -5.34 6.02 -5 5 C-4.34 5 -3.68 5 -3 5 C-2.5359375 4.0409375 -2.5359375 4.0409375 -2.0625 3.0625 C-1 1 -1 1 0 0 Z M-8 8 C-7.34 8.33 -6.68 8.66 -6 9 C-6.9520721 10.00596297 -7.91187346 11.00461563 -8.875 12 C-9.40867188 12.556875 -9.94234375 13.11375 -10.4921875 13.6875 C-12 15 -12 15 -14 15 C-14 14.34 -14 13.68 -14 13 C-12.04072937 11.2856382 -10.04119788 9.61594832 -8 8 Z " fill="#7A3FBF" transform="translate(203,328)"/>
<path d="M0 0 C4.78373993 1.6401394 8.70723897 3.78383824 11.3125 8.25 C11.539375 8.8275 11.76625 9.405 12 10 C9 10 9 10 6.73828125 8.06640625 C5.93777344 7.24011719 5.13726562 6.41382813 4.3125 5.5625 C3.50425781 4.73878906 2.69601563 3.91507812 1.86328125 3.06640625 C0 1 0 1 0 0 Z " fill="#CD6BCE" transform="translate(124,317)"/>
<path d="M0 0 C1.33617352 0.97528737 2.6688751 1.95533319 4 2.9375 C5.11375 3.75541016 5.11375 3.75541016 6.25 4.58984375 C6.8275 5.05519531 7.405 5.52054687 8 6 C8 6.33 8 6.66 8 7 C5.36 6.67 2.72 6.34 0 6 C-0.33 5.01 -0.66 4.02 -1 3 C-1.66 2.67 -2.32 2.34 -3 2 C-2.01 1.34 -1.02 0.68 0 0 Z " fill="#9664C9" transform="translate(241,317)"/>
<path d="M0 0 C0.66 0 1.32 0 2 0 C0.52278578 3.45201639 -1.43794001 5.64961936 -4.125 8.25 C-4.84945313 8.95640625 -5.57390625 9.6628125 -6.3203125 10.390625 C-6.87460937 10.92171875 -7.42890625 11.4528125 -8 12 C-8.33 11.01 -8.66 10.02 -9 9 C-7.8125 6.875 -7.8125 6.875 -6 5 C-5.319375 4.835 -4.63875 4.67 -3.9375 4.5 C-1.78364885 4.18476569 -1.78364885 4.18476569 -0.75 1.9375 C-0.37875 0.9784375 -0.37875 0.9784375 0 0 Z " fill="#BD58B7" transform="translate(265,249)"/>
<path d="M0 0 C0.99 2.64 1.98 5.28 3 8 C-1.43458973 6.6062718 -3.87378374 4.39417765 -7 1 C-2.25 0 -2.25 0 0 0 Z " fill="#D169CD" transform="translate(144,329)"/>
<path d="M0 0 C0.99 0 1.98 0 3 0 C3.88935377 3.303314 4.46274105 6.62294375 5 10 C2.525 9.01 2.525 9.01 0 8 C0 5.33333333 0 2.66666667 0 0 Z " fill="#753DB2" transform="translate(232,302)"/>
<path d="M0 0 C1.32 0 2.64 0 4 0 C4 2.64 4 5.28 4 8 C1.525 7.01 1.525 7.01 -1 6 C-0.67 4.02 -0.34 2.04 0 0 Z " fill="#4072DE" transform="translate(154,240)"/>
<path d="M0 0 C1.5625 1.8125 1.5625 1.8125 3 4 C2.67 4.99 2.34 5.98 2 7 C1.34 6.67 0.68 6.34 0 6 C-2.3494053 6.60760482 -4.68529088 7.27129528 -7 8 C-6.02133662 6.85373678 -5.04205413 5.70800212 -4.0625 4.5625 C-3.51722656 3.92441406 -2.97195312 3.28632813 -2.41015625 2.62890625 C-1.63204305 1.73008851 -0.84063472 0.84063472 0 0 Z " fill="#CF61C9" transform="translate(248,209)"/>
<path d="M0 0 C-0.33 1.65 -0.66 3.3 -1 5 C-2.32 5 -3.64 5 -5 5 C-5 5.66 -5 6.32 -5 7 C-7 6 -7 6 -9 4 C-3.375 0 -3.375 0 0 0 Z " fill="#C738AF" transform="translate(266,196)"/>
<path d="M0 0 C0.66 0.33 1.32 0.66 2 1 C-2.62 4.3 -7.24 7.6 -12 11 C-12.66 10.67 -13.32 10.34 -14 10 C-13.01 9.67 -12.02 9.34 -11 9 C-11 8.34 -11 7.68 -11 7 C-8.6640625 5.23828125 -8.6640625 5.23828125 -5.625 3.3125 C-4.62726563 2.66925781 -3.62953125 2.02601563 -2.6015625 1.36328125 C-1.74304688 0.91339844 -0.88453125 0.46351563 0 0 Z " fill="#3B41C0" transform="translate(272,151)"/>
<path d="M0 0 C5.28 0 10.56 0 16 0 C15.67 1.65 15.34 3.3 15 5 C14.01 5.66 13.02 6.32 12 7 C12 5.35 12 3.7 12 2 C8.04 1.67 4.08 1.34 0 1 C0 0.67 0 0.34 0 0 Z " fill="#4968D2" transform="translate(296,116)"/>
<path d="M0 0 C1.98 0 3.96 0 6 0 C6 0.99 6 1.98 6 3 C7.32 3.66 8.64 4.32 10 5 C8.375 5.75 8.375 5.75 6 6 C2.75 4.1875 2.75 4.1875 0 2 C0 1.34 0 0.68 0 0 Z " fill="#915DC3" transform="translate(187,386)"/>
<path d="M0 0 C1.32 0.66 2.64 1.32 4 2 C-0.44360369 4.86684109 -5.15580362 6.92090046 -10 9 C-10.66 8.34 -11.32 7.68 -12 7 C-11.30132812 6.74605469 -10.60265625 6.49210938 -9.8828125 6.23046875 C-8.97273438 5.88628906 -8.06265625 5.54210937 -7.125 5.1875 C-6.22007813 4.85105469 -5.31515625 4.51460937 -4.3828125 4.16796875 C-1.70574151 3.10350976 -1.70574151 3.10350976 0 0 Z " fill="#2EBFCB" transform="translate(106,161)"/>
<path d="M0 0 C1.32 0.66 2.64 1.32 4 2 C-0.625 7.875 -0.625 7.875 -4 9 C-3.71125 8.443125 -3.4225 7.88625 -3.125 7.3125 C-1.9586747 4.91505355 -0.9660119 2.48403061 0 0 Z M-5 9 C-5 9.99 -5 10.98 -5 12 C-5.99 12 -6.98 12 -8 12 C-7.01 11.01 -6.02 10.02 -5 9 Z " fill="#443FC6" transform="translate(312,116)"/>
<path d="M0 0 C0.33 0 0.66 0 1 0 C1 2.31 1 4.62 1 7 C0.34 6.67 -0.32 6.34 -1 6 C-0.67 4.02 -0.34 2.04 0 0 Z M-2 7 C-1.34 7.33 -0.68 7.66 0 8 C0.22036864 11.85645121 -0.39644899 14.49223216 -2 18 C-2.33 18 -2.66 18 -3 18 C-3.125 10.375 -3.125 10.375 -2 7 Z " fill="#49CFDA" transform="translate(152,67)"/>
<path d="M0 0 C3.82097239 0.53069061 6.06171403 1.49701566 9 4 C8.34 5.32 7.68 6.64 7 8 C5.83035398 6.8572081 4.66435444 5.71068285 3.5 4.5625 C2.8503125 3.92441406 2.200625 3.28632813 1.53125 2.62890625 C0 1 0 1 0 0 Z " fill="#A070CC" transform="translate(170,373)"/>
<path d="M0 0 C0.33 2.31 0.66 4.62 1 7 C0.360625 7.12375 -0.27875 7.2475 -0.9375 7.375 C-1.9584375 7.684375 -1.9584375 7.684375 -3 8 C-3.33 8.66 -3.66 9.32 -4 10 C-4.75 7.25 -4.75 7.25 -5 4 C-1.84210526 0 -1.84210526 0 0 0 Z " fill="#DE64E4" transform="translate(92,255)"/>
<path d="M0 0 C1.5625 1.8125 1.5625 1.8125 3 4 C2.67 4.99 2.34 5.98 2 7 C1.4225 6.814375 0.845 6.62875 0.25 6.4375 C-2.20692525 5.95976454 -3.64397534 6.24270636 -6 7 C-5.525625 6.566875 -5.05125 6.13375 -4.5625 5.6875 C-2.76313043 3.97690387 -2.76313043 3.97690387 -2 1 C-1.34 0.67 -0.68 0.34 0 0 Z " fill="#C134C0" transform="translate(219,240)"/>
<path d="M0 0 C1.32 0.99 2.64 1.98 4 3 C1.69 4.98 -0.62 6.96 -3 9 C-3.26218749 5.85375007 -3.24754367 4.38162983 -1.5 1.6875 C-1.005 1.130625 -0.51 0.57375 0 0 Z " fill="#C45ABB" transform="translate(242,269)"/>
<path d="M0 0 C0.66 0.99 1.32 1.98 2 3 C2.99 3.66 3.98 4.32 5 5 C1.59437148 5.77842938 -1.50765756 6.09978121 -5 6 C-3.35 4.02 -1.7 2.04 0 0 Z " fill="#CD59C8" transform="translate(240,217)"/>
<path d="M0 0 C-0.38520564 2.53910197 -0.70097943 3.72751123 -2.62890625 5.484375 C-3.26699219 5.90203125 -3.90507812 6.3196875 -4.5625 6.75 C-5.20316406 7.17796875 -5.84382812 7.6059375 -6.50390625 8.046875 C-7.24447266 8.51867187 -7.24447266 8.51867187 -8 9 C-8 7.68 -8 6.36 -8 5 C-7.34 5 -6.68 5 -6 5 C-6 4.34 -6 3.68 -6 3 C-3.89994105 0.39992701 -3.48266577 0 0 0 Z " fill="#5F5EB3" transform="translate(225,212)"/>
<path d="M0 0 C3.6875 0.875 3.6875 0.875 7 2 C7.33 3.98 7.66 5.96 8 8 C6.5 6.625 6.5 6.625 5 5 C5 4.34 5 3.68 5 3 C4.34 2.67 3.68 2.34 3 2 C2.67 2.66 2.34 3.32 2 4 C1.01 4.33 0.02 4.66 -1 5 C-1 4.34 -1 3.68 -1 3 C-1.66 2.67 -2.32 2.34 -3 2 C-2.01 1.34 -1.02 0.68 0 0 Z " fill="#BF249E" transform="translate(291,196)"/>
<path d="M0 0 C0.66 0.33 1.32 0.66 2 1 C0.9375 3.375 0.9375 3.375 -1 6 C-4.6875 7.3125 -4.6875 7.3125 -8 8 C-7.04578192 6.85073734 -6.08647955 5.70569459 -5.125 4.5625 C-4.59132812 3.92441406 -4.05765625 3.28632813 -3.5078125 2.62890625 C-2 1 -2 1 0 0 Z " fill="#7727A2" transform="translate(197,319)"/>
<path d="M0 0 C0 0.99 0 1.98 0 3 C5.94 3.99 5.94 3.99 12 5 C12 5.33 12 5.66 12 6 C8.04 6 4.08 6 0 6 C-0.33 5.34 -0.66 4.68 -1 4 C-1.99 3.67 -2.98 3.34 -4 3 C-4 2.34 -4 1.68 -4 1 C-2 0 -2 0 0 0 Z " fill="#3A3CA7" transform="translate(165,249)"/>
<path d="M0 0 C0 0.99 0 1.98 0 3 C-1.53125 4.38671875 -1.53125 4.38671875 -3.5 5.6875 C-4.47453125 6.34298828 -4.47453125 6.34298828 -5.46875 7.01171875 C-5.9740625 7.33785156 -6.479375 7.66398438 -7 8 C-5.50902342 4.2047869 -3.24299151 2.38957269 0 0 Z M-10 9 C-9.34 9 -8.68 9 -8 9 C-8 9.66 -8 10.32 -8 11 C-9.98 11.99 -9.98 11.99 -12 13 C-11.34 11.68 -10.68 10.36 -10 9 Z " fill="#3948BA" transform="translate(207,211)"/>
<path d="M0 0 C-0.25 2.375 -0.25 2.375 -1 5 C-3.0625 6.3125 -3.0625 6.3125 -5 7 C-5 6.01 -5 5.02 -5 4 C-5.66 3.67 -6.32 3.34 -7 3 C-2.25 0 -2.25 0 0 0 Z " fill="#6362B2" transform="translate(235,201)"/>
<path d="M0 0 C-2.06756277 2.7972908 -3.14440371 3.02692273 -6.6875 3.6875 C-7.780625 3.790625 -8.87375 3.89375 -10 4 C-10 3.01 -10 2.02 -10 1 C-6.21812119 -0.83691257 -4.05431692 -1.15837626 0 0 Z " fill="#635FB9" transform="translate(187,251)"/>
<path d="M0 0 C4.41889613 1.35021826 6.34345343 3.26115668 9 7 C4.71193127 6.52354792 2.73352513 5.34097516 0 2 C0 1.34 0 0.68 0 0 Z " fill="#D980DE" transform="translate(140,256)"/>
<path d="M0 0 C3.81538462 2.46153846 3.81538462 2.46153846 4.75 5.1875 C4.8325 5.785625 4.915 6.38375 5 7 C3.68 7.33 2.36 7.66 1 8 C1 7.34 1 6.68 1 6 C0.01 5.34 -0.98 4.68 -2 4 C-2 3.01 -2 2.02 -2 1 C-1.34 0.67 -0.68 0.34 0 0 Z " fill="#C131BB" transform="translate(243,216)"/>
<path d="M0 0 C0.33 0.66 0.66 1.32 1 2 C1.99 2 2.98 2 4 2 C2.70700306 4.88437779 1.34058637 6.87219421 -1 9 C-1 7.68 -1 6.36 -1 5 C-1.66 4.67 -2.32 4.34 -3 4 C-2.34 3.67 -1.68 3.34 -1 3 C-0.67 2.01 -0.34 1.02 0 0 Z " fill="#9452BF" transform="translate(297,385)"/>
<path d="M0 0 C0.33 0 0.66 0 1 0 C1.37952295 6.19887485 0.8352113 10.4477112 -2 16 C-2.33 16 -2.66 16 -3 16 C-3 14.02 -3 12.04 -3 10 C-2.34 10 -1.68 10 -1 10 C-0.67 6.7 -0.34 3.4 0 0 Z " fill="#E194D2" transform="translate(300,203)"/>
<path d="M0 0 C0.99 0.33 1.98 0.66 3 1 C3 2.65 3 4.3 3 6 C1.68 6.33 0.36 6.66 -1 7 C-1.04254356 5.00045254 -1.04080783 2.99958364 -1 1 C-0.67 0.67 -0.34 0.34 0 0 Z " fill="#4A47B2" transform="translate(186,244)"/>
<path d="M0 0 C-1.39332574 3.36720387 -2.9789286 4.9859524 -6 7 C-6 5.02 -6 3.04 -6 1 C-4 0 -4 0 0 0 Z " fill="#716DBF" transform="translate(260,178)"/>
<path d="M0 0 C1.32 0.33 2.64 0.66 4 1 C2.76055724 1.86941494 1.50792941 2.72005457 0.25 3.5625 C-0.44609375 4.03816406 -1.1421875 4.51382813 -1.859375 5.00390625 C-4 6 -4 6 -6.265625 5.65234375 C-6.83796875 5.43707031 -7.4103125 5.22179687 -8 5 C-3.375 2 -3.375 2 0 2 C0 1.34 0 0.68 0 0 Z " fill="#3C3EBF" transform="translate(282,145)"/>
<path d="M0 0 C2.31 0 4.62 0 7 0 C7.33 0.99 7.66 1.98 8 3 C6.35 3.66 4.7 4.32 3 5 C2.01 3.35 1.02 1.7 0 0 Z " fill="#D65CDC" transform="translate(96,288)"/>
<path d="M0 0 C-0.33 1.32 -0.66 2.64 -1 4 C-2.32 4 -3.64 4 -5 4 C-5.33 4.66 -5.66 5.32 -6 6 C-6.33 5.01 -6.66 4.02 -7 3 C-4.49955934 -0.00052879 -4.2621484 0 0 0 Z " fill="#423FB3" transform="translate(182,248)"/>
<path d="M0 0 C0.33 0.66 0.66 1.32 1 2 C1.66 2 2.32 2 3 2 C3 1.34 3 0.68 3 0 C5.31 0.33 7.62 0.66 10 1 C8.375 2.5625 8.375 2.5625 6 4 C2.75 3.6875 2.75 3.6875 0 3 C0 2.01 0 1.02 0 0 Z " fill="#CB447B" transform="translate(353,92)"/>
<path d="M0 0 C1.32 0 2.64 0 4 0 C4.33 1.98 4.66 3.96 5 6 C3.02 5.34 1.04 4.68 -1 4 C-0.67 2.68 -0.34 1.36 0 0 Z " fill="#9456C2" transform="translate(198,390)"/>
<path d="M0 0 C0.99 0 1.98 0 3 0 C3.33 1.98 3.66 3.96 4 6 C2.68 6 1.36 6 0 6 C0 4.02 0 2.04 0 0 Z " fill="#DF52E6" transform="translate(144,265)"/>
<path d="M0 0 C1.32 0 2.64 0 4 0 C3.43628586 3.26954202 2.50037734 4.82575883 0 7 C-0.38133299 5.0085944 -0.71325582 3.00720923 -1 1 C-0.67 0.67 -0.34 0.34 0 0 Z " fill="#C11FA7" transform="translate(292,216)"/>
<path d="M0 0 C0.66 0 1.32 0 2 0 C2 0.66 2 1.32 2 2 C3.32 2.33 4.64 2.66 6 3 C5.67 4.32 5.34 5.64 5 7 C4.67 6.34 4.34 5.68 4 5 C1.98330173 3.86649466 1.98330173 3.86649466 0 3 C0 2.01 0 1.02 0 0 Z " fill="#C530B9" transform="translate(249,209)"/>
<path d="M0 0 C2.88437779 1.29299694 4.87219421 2.65941363 7 5 C6.67 5.66 6.34 6.32 6 7 C4.125 6.875 4.125 6.875 2 6 C0.75 2.9375 0.75 2.9375 0 0 Z " fill="#CE64B9" transform="translate(291,191)"/>
<path d="M0 0 C1.32 0.33 2.64 0.66 4 1 C1.36 2.98 -1.28 4.96 -4 7 C-4.66 6.67 -5.32 6.34 -6 6 C-5.09972412 4.96468274 -4.17906965 3.94705835 -3.25 2.9375 C-2.48429687 2.08478516 -2.48429687 2.08478516 -1.703125 1.21484375 C-1.14109375 0.81394531 -0.5790625 0.41304687 0 0 Z " fill="#CF78BE" transform="translate(266,191)"/>
<path d="M0 0 C1.49080078 0.02707031 1.49080078 0.02707031 3.01171875 0.0546875 C3.77097656 0.07789063 4.53023438 0.10109375 5.3125 0.125 C5.3125 0.455 5.3125 0.785 5.3125 1.125 C0.14680559 2.91717969 -3.19803913 3.24529814 -8.6875 2.125 C-5.26655758 -0.15562828 -4.00562778 -0.09425007 0 0 Z " fill="#B22B96" transform="translate(279.6875,188.875)"/>
<path d="M0 0 C0.99 0.33 1.98 0.66 3 1 C0.45368965 3.97069541 -2.42230149 5.4775751 -6 7 C-6.66 6.67 -7.32 6.34 -8 6 C-6.7391988 4.96680187 -5.46596742 3.94875621 -4.1875 2.9375 C-3.47980469 2.36902344 -2.77210938 1.80054688 -2.04296875 1.21484375 C-1.36878906 0.81394531 -0.69460937 0.41304687 0 0 Z " fill="#30B5CF" transform="translate(142,144)"/>
<path d="M0 0 C-0.33 1.32 -0.66 2.64 -1 4 C-1.99 4 -2.98 4 -4 4 C-4.33 3.34 -4.66 2.68 -5 2 C-5.66 2 -6.32 2 -7 2 C-7 1.34 -7 0.68 -7 0 C-2.25 -1.125 -2.25 -1.125 0 0 Z " fill="#5432C1" transform="translate(331,122)"/>
<path d="M0 0 C0.33 0.66 0.66 1.32 1 2 C1.99 2 2.98 2 4 2 C4 2.66 4 3.32 4 4 C1.35261084 5.4606285 0.10551666 6 -3 6 C-3 5.34 -3 4.68 -3 4 C-2.34 4 -1.68 4 -1 4 C-0.67 2.68 -0.34 1.36 0 0 Z " fill="#9457BE" transform="translate(283,397)"/>
<path d="M0 0 C0.99 0 1.98 0 3 0 C3.99 2.31 4.98 4.62 6 7 C5.34 7.66 4.68 8.32 4 9 C0 2.25 0 2.25 0 0 Z " fill="#9A77C6" transform="translate(154,349)"/>
<path d="M0 0 C0.66 0.33 1.32 0.66 2 1 C2.40729228 3.32156597 2.74438677 5.6568787 3 8 C1.02 6.35 -0.96 4.7 -3 3 C-2.01 2.01 -1.02 1.02 0 0 Z " fill="#E58FE8" transform="translate(102,291)"/>
<path d="M0 0 C0.99 0 1.98 0 3 0 C3.433125 1.11375 3.433125 1.11375 3.875 2.25 C4.82368263 4.56900199 5.86559779 6.76932676 7 9 C5.82460004 8.07347299 4.65989423 7.13336613 3.5 6.1875 C2.52546875 5.40439453 2.52546875 5.40439453 1.53125 4.60546875 C0 3 0 3 0 0 Z " fill="#E7A1E9" transform="translate(92,284)"/>
<path d="M0 0 C3 2 3 2 3.6875 4.625 C3.790625 5.40875 3.89375 6.1925 4 7 C2.02 6.34 0.04 5.68 -2 5 C-1.34 3.35 -0.68 1.7 0 0 Z " fill="#B525AA" transform="translate(242,264)"/>
<path d="M0 0 C1.98 0.99 1.98 0.99 4 2 C4 3.65 4 5.3 4 7 C3.01 7 2.02 7 1 7 C0.67 4.69 0.34 2.38 0 0 Z " fill="#B522A9" transform="translate(249,257)"/>
<path d="M0 0 C-3.20380017 2.13586678 -4.01939967 2.23132175 -7.6875 2.125 C-8.89986328 2.09792969 -8.89986328 2.09792969 -10.13671875 2.0703125 C-11.05904297 2.03550781 -11.05904297 2.03550781 -12 2 C-12 1.34 -12 0.68 -12 0 C-7.74433453 -1.16063604 -4.3164922 -0.76173392 0 0 Z " fill="#D666DD" transform="translate(116,242)"/>
<path d="M0 0 C0.66 0.33 1.32 0.66 2 1 C-1.32307692 5.8 -1.32307692 5.8 -4.75 6.8125 C-5.4925 6.874375 -6.235 6.93625 -7 7 C-4.66666667 4.66666667 -2.33333333 2.33333333 0 0 Z " fill="#89E3DD" transform="translate(104,121)"/>
<path d="M0 0 C2.9375 1.25 2.9375 1.25 6 3 C6.875 5.1875 6.875 5.1875 7 7 C4.13302508 5.71480435 2.02392288 4.42870746 0 2 C0 1.34 0 0.68 0 0 Z " fill="#D47BA1" transform="translate(323,85)"/>
<path d="M0 0 C3.93846154 3.32307692 3.93846154 3.32307692 4.25 6.75 C4.1675 7.4925 4.085 8.235 4 9 C-0.875 4.25 -0.875 4.25 -2 2 C-1.34 2 -0.68 2 0 2 C0 1.34 0 0.68 0 0 Z " fill="#9D74CF" transform="translate(166,364)"/>
<path d="M0 0 C0.99 0 1.98 0 3 0 C1.63016497 3.16115776 1.0109362 3.9927092 -2 6 C-2 2 -2 2 0 0 Z " fill="#5855B3" transform="translate(242,192)"/>
<path d="M0 0 C1.99097846 2.98646769 2.94124926 5.59687262 4 9 C2.68 8.67 1.36 8.34 0 8 C0 5.36 0 2.72 0 0 Z " fill="#AC86D1" transform="translate(237,308)"/>
<path d="M0 0 C3.91402949 1.26941497 5.79072873 2.51167694 8 6 C5 6 5 6 3.61328125 4.6875 C2.40885417 3.125 1.20442708 1.5625 0 0 Z " fill="#CE6CD2" transform="translate(117,310)"/>
<path d="M0 0 C-1.39332574 3.36720387 -2.9789286 4.9859524 -6 7 C-6 5.68 -6 4.36 -6 3 C-2.78571429 0 -2.78571429 0 0 0 Z " fill="#BB49B0" transform="translate(287,229)"/>
<path d="M0 0 C0.66 0.33 1.32 0.66 2 1 C-3.625 5 -3.625 5 -7 5 C-7 4.34 -7 3.68 -7 3 C-4.69631264 1.93347808 -2.35981813 0.93578995 0 0 Z " fill="#2CB6CD" transform="translate(128,153)"/>
<path d="M0 0 C0.99 0.33 1.98 0.66 3 1 C-2.41538462 5.06153846 -2.41538462 5.06153846 -5.375 4.75 C-5.91125 4.5025 -6.4475 4.255 -7 4 C-5.35 3.67 -3.7 3.34 -2 3 C-2 2.34 -2 1.68 -2 1 C-1.34 0.67 -0.68 0.34 0 0 Z " fill="#4757D5" transform="translate(289,140)"/>
<path d="M0 0 C0 3 0 3 -1 6 C-1.99 6 -2.98 6 -4 6 C-3.67 4.35 -3.34 2.7 -3 1 C-2.01 0.67 -1.02 0.34 0 0 Z " fill="#5DD7D3" transform="translate(99,127)"/>
<path d="M0 0 C1.65 0.33 3.3 0.66 5 1 C5 1.99 5 2.98 5 4 C3.35 4 1.7 4 0 4 C-0.33 3.34 -0.66 2.68 -1 2 C-0.67 1.34 -0.34 0.68 0 0 Z " fill="#CB1B5F" transform="translate(358,89)"/>
<path d="M0 0 C-0.66 0 -1.32 0 -2 0 C-1.67 0.99 -1.34 1.98 -1 3 C-2.65 3 -4.3 3 -6 3 C-6.33 2.01 -6.66 1.02 -7 0 C-3.98968256 -0.93423645 -3.13349732 -1.04449911 0 0 Z " fill="#7D44C4" transform="translate(176,370)"/>
<path d="M0 0 C0.66 0 1.32 0 2 0 C2 0.99 2 1.98 2 3 C2.99 3 3.98 3 5 3 C5 3.66 5 4.32 5 5 C4.01 5 3.02 5 2 5 C1.67 5.66 1.34 6.32 1 7 C0.31292445 4.50935112 0 2.62113708 0 0 Z " fill="#DF6DE3" transform="translate(90,279)"/>
<path d="M0 0 C1.32 0 2.64 0 4 0 C4 1.65 4 3.3 4 5 C2.68 4.67 1.36 4.34 0 4 C0 2.68 0 1.36 0 0 Z " fill="#B621B0" transform="translate(235,272)"/>
<path d="M0 0 C-1.22934015 3.68802044 -2.93859378 4.72356973 -6 7 C-6.33 5.68 -6.66 4.36 -7 3 C-2.25 0 -2.25 0 0 0 Z " fill="#4E69D8" transform="translate(200,217)"/>
<path d="M0 0 C0.99 0.33 1.98 0.66 3 1 C2 4 2 4 -0.0625 5.1875 C-0.701875 5.455625 -1.34125 5.72375 -2 6 C-2.33 4.68 -2.66 3.36 -3 2 C-2.01 2 -1.02 2 0 2 C0 1.34 0 0.68 0 0 Z " fill="#765AC2" transform="translate(326,168)"/>
<path d="M0 0 C1.65 0.99 3.3 1.98 5 3 C4.67 3.66 4.34 4.32 4 5 C2.68 5 1.36 5 0 5 C0 3.35 0 1.7 0 0 Z " fill="#7C61C8" transform="translate(326,117)"/>
</svg>
